<?xml version="1.0" encoding="utf-8"?>
<!-- Generator: Adobe Illustrator 27.5.0, SVG Export Plug-In . SVG Version: 6.00 Build 0)  -->
<svg version="1.1" xmlns="http://www.w3.org/2000/svg" xmlns:xlink="http://www.w3.org/1999/xlink" x="0px" y="0px"
	 viewBox="0 0 500 500" style="enable-background:new 0 0 500 500;" xml:space="preserve">
<g id="Mountains_00000058560533871271617810000001912307491216373891_">
	<g id="Mountains">
		<polygon style="fill:#E0E0E0;" points="479.844,358.772 471.789,240.068 461.64,228.633 447.552,174.873 435.546,163.438 
			433.478,143.545 422.458,134.819 417.057,94.617 408.118,97.597 405.704,114.34 395.883,118.043 384.35,157.571 369.96,165.619 
			358.089,204.095 342.494,214.595 295.559,360.303 		"/>
		<polygon style="fill:#F0F0F0;" points="475.663,297.156 452.612,280.202 442.473,243.458 429.79,241.344 421.32,210.691 
			411.851,212.805 404.043,228.633 389.272,231.478 376.94,193.474 365.665,194.484 357.34,170.229 350.515,177.697 345.23,192.37 
			333.603,196.598 324.795,215.884 307.179,219.125 271.5,360.303 479.844,358.772 		"/>
	</g>
</g>
<g id="Floor">
	<path id="Floor_00000174592410810347225290000012766399434479370880_" style="fill:#FAFAFA;" d="M87.525,455.094
		c-89.731-51.806-89.731-135.801,0-187.607c89.731-51.806,235.215-51.806,324.948,0c89.733,51.806,89.733,135.801,0,187.607
		C322.74,506.9,177.256,506.9,87.525,455.094z"/>
</g>
<g id="Shadows">
	<polyline style="fill:#E0E0E0;" points="330.336,482.059 223.29,315.067 143.104,361.527 119.009,373.038 40.417,419.58 
		330.336,482.059 	"/>
	<polyline style="fill:#E0E0E0;" points="457.774,457.728 382.528,340.344 326.162,373.002 309.225,381.094 253.981,413.81 
		457.774,457.728 	"/>
</g>
<g id="Clouds">
	<path id="Cloud_3_" style="fill:#F0F0F0;" d="M104.549,95.505c-1.076-0.488-2.356-0.533-3.281-0.606
		c-1.062-0.084-1.399-0.294-1.603-0.524c-2.583-3.697-6.854-3.838-9.402-2.778c-0.625-2.544-3.702-4.752-7.09-4.008
		c0.116-3.305-4.104-6.856-7.896-7.663c-3.636-0.774-6.806-0.449-8.881,1.942c-2.221-4.337-10.927-5.559-15.639-3.265
		c-2.709,1.319-5.008,2.674-6.131,5.157c-0.742,1.639-1.007,2.73-1.02,4.936c-1.836-1.618-5.513-2.056-7.965-1.107
		c-2.644,1.023-2.845,3.016-2.975,5.043c-2.592-0.653-4.327-0.231-4.813-0.087c-1.666,0.494-2.626,1.801-2.397,2.858
		c-1.318-0.074-4.458,0.992-4.097,2.383c0.405,1.562,3.991,1.404,5.33,1.355c1.109-0.041,2.545-0.338,3.749-0.589
		c0.366,0.181,1.338,0.375,1.95,0.37c2.283-0.016,3.25-0.995,3.617-1.844c1.114,2.346,5.08,4.134,7.883,4.851
		c5.279,1.351,12.749,0.528,15.999-3.418c0.341,0.71,0.911,1.371,1.573,1.916c1.29,1.063,3.032,1.806,4.884,1.979
		c2.168,0.203,7.986,0.481,9.625-2.966c1.161,2.292,6.34,3.336,10.279,2.776c1.473-0.209,3.127-0.72,4.41-1.331
		c1.035-0.493,1.622-0.972,2.535-1.52c0.776-0.466,1.126-0.46,2.162-0.148c2.703,0.815,5.841,1.148,8.6-0.009
		C106.155,98.284,106.614,96.441,104.549,95.505z"/>
	<path id="Cloud_00000082360803715027606090000017987836773463820449_" style="fill:#F5F5F5;" d="M372.01,110.341
		c-1.037-0.47-2.272-0.514-3.163-0.584c-1.024-0.081-1.349-0.284-1.546-0.506c-2.491-3.564-6.607-3.7-9.065-2.679
		c-0.602-2.452-3.569-4.581-6.835-3.864c0.112-3.186-3.957-6.61-7.612-7.388c-3.506-0.746-6.562-0.433-8.562,1.872
		c-2.141-4.181-10.535-5.36-15.077-3.147c-2.612,1.272-4.828,2.577-5.911,4.971c-0.715,1.58-0.97,2.632-0.984,4.759
		c-1.77-1.56-5.315-1.982-7.679-1.068c-2.549,0.986-2.742,2.907-2.868,4.862c-2.499-0.63-4.171-0.223-4.64-0.084
		c-1.606,0.476-2.532,1.736-2.311,2.756c-1.27-0.071-4.298,0.956-3.95,2.298c0.391,1.506,3.848,1.354,5.139,1.306
		c1.069-0.039,2.453-0.326,3.614-0.568c0.353,0.174,1.29,0.361,1.88,0.357c2.201-0.016,3.133-0.959,3.487-1.778
		c1.074,2.262,4.897,3.985,7.6,4.677c5.089,1.303,12.291,0.509,15.425-3.295c0.329,0.685,0.879,1.322,1.516,1.847
		c1.244,1.024,2.923,1.741,4.709,1.908c2.09,0.195,7.699,0.464,9.28-2.86c1.119,2.21,6.112,3.216,9.91,2.676
		c1.42-0.201,3.014-0.694,4.252-1.283c0.998-0.475,1.564-0.938,2.444-1.466c0.748-0.449,1.086-0.444,2.084-0.143
		c2.606,0.786,5.631,1.107,8.291-0.009C373.558,113.02,374.001,111.243,372.01,110.341z"/>
	<path id="Cloud_00000036251744609756816270000014059973180958564525_" style="fill:#EBEBEB;" d="M152.115,228.8
		c-1.583-0.664-3.444-0.676-4.79-0.744c-1.546-0.078-2.044-0.37-2.35-0.695c-3.905-5.262-10.114-5.291-13.772-3.646
		c-1.013-3.669-5.574-6.748-10.464-5.528c0.032-4.805-6.245-9.789-11.786-10.804c-5.314-0.973-9.905-0.37-12.819,3.189
		c-3.406-6.208-16.102-7.622-22.85-4.094c-3.881,2.029-7.163,4.091-8.692,7.744c-1.009,2.411-1.349,4.007-1.278,7.212
		c-2.734-2.274-8.092-2.758-11.615-1.279c-3.798,1.595-4.007,4.498-4.112,7.448c-3.792-0.842-6.294-0.156-6.995,0.073
		c-2.399,0.786-3.74,2.725-3.364,4.251c-1.917-0.052-6.434,1.625-5.852,3.632c0.653,2.252,5.855,1.874,7.798,1.747
		c1.609-0.105,3.682-0.596,5.421-1.01c0.54,0.248,1.959,0.489,2.847,0.457c3.316-0.118,4.679-1.579,5.177-2.829
		c1.716,3.362,7.55,5.794,11.651,6.72c7.724,1.744,18.539,0.238,23.097-5.627c0.524,1.017,1.38,1.953,2.364,2.717
		c1.918,1.49,4.478,2.497,7.176,2.672c3.157,0.204,11.619,0.368,13.858-4.707c1.781,3.281,9.347,4.582,15.045,3.606
		c2.131-0.365,4.512-1.176,6.351-2.116c1.482-0.758,2.316-1.48,3.62-2.313c1.108-0.709,1.617-0.715,3.133-0.305
		c3.96,1.072,8.531,1.425,12.491-0.369C154.563,232.77,155.154,230.073,152.115,228.8z"/>
	<path id="Cloud_00000036241702978263982220000007852208590146618546_" style="fill:#EBEBEB;" d="M359.423,283.882
		c-1.268-0.545-2.765-0.569-3.847-0.633c-1.243-0.074-1.641-0.312-1.885-0.576c-3.103-4.261-8.095-4.329-11.05-3.033
		c-0.788-2.958-4.433-5.468-8.376-4.522c0.06-3.864-4.951-7.918-9.4-8.775c-4.267-0.822-7.963-0.37-10.333,2.471
		c-2.694-5.017-12.895-6.247-18.347-3.459c-3.136,1.603-5.79,3.238-7.047,6.165c-0.829,1.932-1.114,3.213-1.08,5.79
		c-2.182-1.849-6.488-2.277-9.332-1.113c-3.066,1.255-3.255,3.588-3.362,5.96c-3.044-0.704-5.061-0.171-5.626,0.008
		c-1.935,0.615-3.027,2.164-2.736,3.394c-1.541-0.056-5.186,1.26-4.733,2.878c0.509,1.816,4.695,1.55,6.259,1.462
		c1.294-0.073,2.966-0.452,4.367-0.773c0.432,0.203,1.572,0.407,2.287,0.388c2.668-0.071,3.775-1.236,4.184-2.237
		c1.355,2.716,6.03,4.715,9.322,5.489c6.199,1.459,14.908,0.327,18.617-4.357c0.414,0.822,1.096,1.581,1.881,2.203
		c1.532,1.212,3.583,2.041,5.752,2.201c2.537,0.187,9.342,0.38,11.179-3.685c1.408,2.652,7.484,3.754,12.074,3.01
		c1.717-0.278,3.637-0.913,5.123-1.656c1.198-0.599,1.874-1.173,2.928-1.834c0.896-0.562,1.305-0.563,2.522-0.223
		c3.177,0.891,6.851,1.209,10.048-0.206C361.363,287.093,361.858,284.929,359.423,283.882z"/>
	<path id="Cloud_4_" style="fill:#F5F5F5;" d="M156.162,58.678c-0.682-0.309-1.492-0.337-2.078-0.384
		c-0.673-0.053-0.886-0.187-1.016-0.332c-1.636-2.342-4.341-2.431-5.956-1.76c-0.396-1.611-2.345-3.01-4.491-2.539
		c0.074-2.093-2.6-4.343-5.001-4.854c-2.303-0.49-4.311-0.284-5.626,1.23c-1.407-2.747-6.922-3.521-9.906-2.068
		c-1.716,0.836-3.172,1.694-3.884,3.266c-0.47,1.038-0.638,1.729-0.646,3.126c-1.163-1.025-3.492-1.302-5.045-0.701
		c-1.675,0.648-1.802,1.91-1.885,3.194c-1.642-0.414-2.741-0.146-3.049-0.055c-1.055,0.313-1.663,1.141-1.519,1.81
		c-0.835-0.047-2.824,0.628-2.595,1.51c0.257,0.989,2.528,0.889,3.376,0.858c0.702-0.026,1.612-0.214,2.375-0.373
		c0.232,0.115,0.848,0.237,1.235,0.235c1.446-0.01,2.059-0.63,2.291-1.168c0.706,1.486,3.218,2.618,4.993,3.073
		c3.344,0.856,8.075,0.334,10.134-2.165c0.216,0.45,0.577,0.868,0.996,1.213c0.817,0.673,1.92,1.144,3.094,1.254
		c1.373,0.128,5.059,0.305,6.097-1.879c0.735,1.452,4.016,2.113,6.511,1.759c0.933-0.132,1.981-0.456,2.794-0.843
		c0.655-0.312,1.028-0.616,1.606-0.963c0.492-0.295,0.713-0.292,1.369-0.094c1.712,0.516,3.7,0.727,5.447-0.006
		C157.179,60.439,157.47,59.271,156.162,58.678z"/>
	<path id="Cloud_00000101811459539464537780000016836381996228013723_" style="fill:#F5F5F5;" d="M318.008,144.679
		c-0.639-0.29-1.399-0.316-1.949-0.36c-0.631-0.05-0.831-0.175-0.952-0.311c-1.534-2.196-4.07-2.28-5.584-1.65
		c-0.371-1.511-2.199-2.822-4.211-2.38c0.069-1.963-2.437-4.072-4.689-4.551c-2.16-0.46-4.043-0.267-5.275,1.153
		c-1.319-2.576-6.49-3.302-9.288-1.939c-1.609,0.784-2.974,1.588-3.642,3.063c-0.44,0.973-0.598,1.622-0.606,2.932
		c-1.09-0.961-3.274-1.221-4.731-0.658c-1.57,0.607-1.689,1.791-1.767,2.995c-1.539-0.388-2.57-0.137-2.859-0.052
		c-0.989,0.293-1.56,1.07-1.424,1.698c-0.783-0.044-2.648,0.589-2.433,1.415c0.241,0.928,2.37,0.834,3.166,0.805
		c0.658-0.024,1.511-0.201,2.227-0.35c0.218,0.107,0.795,0.223,1.158,0.22c1.356-0.01,1.93-0.591,2.148-1.095
		c0.662,1.393,3.017,2.455,4.682,2.881c3.135,0.803,7.572,0.313,9.503-2.03c0.202,0.422,0.541,0.814,0.934,1.138
		c0.766,0.631,1.801,1.073,2.901,1.175c1.287,0.12,4.743,0.286,5.717-1.762c0.689,1.361,3.766,1.981,6.105,1.649
		c0.875-0.124,1.857-0.428,2.619-0.791c0.615-0.292,0.964-0.578,1.506-0.903c0.461-0.277,0.669-0.273,1.284-0.088
		c1.605,0.484,3.469,0.682,5.108-0.005C318.962,146.329,319.235,145.235,318.008,144.679z"/>
</g>
<g id="Coins">
	<g id="Coin_26_">
		<g id="Lines" style="opacity:0.2;">
			<g>
				<g>
					<path style="fill:#4682B4;" d="M416.12,45.245c-0.205,0-0.372-0.166-0.372-0.372V31.904c0-0.205,0.167-0.372,0.372-0.372
						c0.205,0,0.372,0.167,0.372,0.372v12.969C416.492,45.079,416.325,45.245,416.12,45.245z"/>
				</g>
				<g>
					<path style="fill:#4682B4;" d="M409.359,102.322c-0.205,0-0.372-0.167-0.372-0.372V88.981c0-0.205,0.167-0.372,0.372-0.372
						s0.372,0.166,0.372,0.372v12.969C409.732,102.156,409.565,102.322,409.359,102.322z"/>
				</g>
			</g>
			<g>
				<g>
					<path style="fill:#4682B4;" d="M423.632,52.267c-0.063,0-0.127-0.016-0.185-0.05c-0.178-0.103-0.239-0.33-0.137-0.508
						l4.863-8.424c0.104-0.177,0.331-0.236,0.508-0.136c0.178,0.103,0.239,0.33,0.137,0.508l-4.863,8.424
						C423.885,52.2,423.76,52.267,423.632,52.267z"/>
				</g>
				<g>
					<path style="fill:#4682B4;" d="M396.983,90.756c-0.063,0-0.127-0.016-0.185-0.05c-0.178-0.103-0.239-0.33-0.137-0.508
						l4.863-8.424c0.104-0.177,0.331-0.237,0.508-0.136c0.178,0.103,0.239,0.33,0.137,0.508l-4.863,8.424
						C397.237,90.689,397.112,90.756,396.983,90.756z"/>
				</g>
			</g>
			<g>
				<g>
					<path style="fill:#4682B4;" d="M429.131,62.774c-0.175,0-0.331-0.124-0.365-0.301c-0.038-0.202,0.094-0.396,0.295-0.435
						l8.424-1.622c0.206-0.044,0.396,0.094,0.436,0.294c0.038,0.202-0.094,0.396-0.295,0.435l-8.424,1.622
						C429.178,62.772,429.154,62.774,429.131,62.774z"/>
				</g>
				<g>
					<path style="fill:#4682B4;" d="M387.924,73.445c-0.175,0-0.331-0.124-0.365-0.301c-0.038-0.202,0.094-0.396,0.295-0.435
						l8.424-1.621c0.209-0.04,0.397,0.094,0.436,0.295c0.038,0.202-0.094,0.396-0.295,0.436l-8.424,1.621
						C387.971,73.443,387.946,73.445,387.924,73.445z"/>
				</g>
			</g>
			<g>
				<g>
					<path style="fill:#4682B4;" d="M440.872,79.569c-0.064,0-0.127-0.016-0.186-0.05l-9.727-5.616
						c-0.178-0.103-0.239-0.33-0.137-0.508c0.104-0.178,0.332-0.237,0.508-0.136l9.727,5.616c0.178,0.102,0.239,0.33,0.137,0.508
						C441.125,79.502,441,79.569,440.872,79.569z"/>
				</g>
				<g>
					<path style="fill:#4682B4;" d="M394.335,60.645c-0.064,0-0.127-0.016-0.186-0.05l-9.728-5.616
						c-0.178-0.103-0.239-0.329-0.137-0.508c0.104-0.178,0.332-0.236,0.508-0.136l9.728,5.616c0.178,0.103,0.239,0.33,0.137,0.508
						C394.588,60.579,394.463,60.645,394.335,60.645z"/>
				</g>
			</g>
			<g>
				<g>
					<path style="fill:#4682B4;" d="M435.718,95.158c-0.113,0-0.226-0.052-0.299-0.15l-8.424-11.349
						c-0.122-0.165-0.088-0.398,0.077-0.52c0.165-0.122,0.397-0.087,0.52,0.077l8.424,11.349c0.122,0.165,0.088,0.398-0.077,0.52
						C435.873,95.134,435.795,95.158,435.718,95.158z"/>
				</g>
				<g>
					<path style="fill:#4682B4;" d="M399.079,49.478c-0.113,0-0.226-0.052-0.299-0.15l-8.424-11.349
						c-0.122-0.165-0.088-0.398,0.077-0.52c0.165-0.121,0.397-0.088,0.521,0.077l8.424,11.349c0.122,0.165,0.088,0.398-0.077,0.52
						C399.235,49.454,399.157,49.478,399.079,49.478z"/>
				</g>
			</g>
			<g>
				<g>
					<path style="fill:#4682B4;" d="M424.467,102.733c-0.154,0-0.298-0.096-0.352-0.25l-4.863-14.04
						c-0.066-0.194,0.036-0.406,0.23-0.473c0.197-0.069,0.406,0.036,0.474,0.229l4.863,14.04c0.066,0.194-0.036,0.406-0.229,0.473
						C424.548,102.726,424.507,102.733,424.467,102.733z"/>
				</g>
				<g>
					<path style="fill:#4682B4;" d="M406.77,44.595c-0.154,0-0.298-0.096-0.352-0.25l-4.863-14.04
						c-0.066-0.194,0.036-0.406,0.229-0.473c0.197-0.068,0.406,0.035,0.474,0.229l4.863,14.04c0.066,0.194-0.036,0.406-0.229,0.473
						C406.851,44.588,406.81,44.595,406.77,44.595z"/>
				</g>
			</g>
		</g>
		<g id="Coin_24_">
			<g id="XMLID_00000048482463619230659200000000872086066134773393_">
				<path id="XMLID_3778_" style="fill:#4682B4;" d="M402.955,51.39l-0.953-1.989l4.17-2.405l0,0
					c0.494-0.285,1.018-0.507,1.573-0.657c0.191-0.051,0.386-0.093,0.584-0.128c0.917-0.159,1.9-0.138,2.935,0.08
					c0.347,0.072,0.701,0.167,1.058,0.285c0.359,0.115,0.724,0.255,1.094,0.42c0.462,0.202,0.93,0.441,1.404,0.719
					c0.495,0.29,0.983,0.609,1.464,0.961c0.362,0.264,0.719,0.545,1.071,0.844c5.176,4.368,9.248,12.156,10.282,19.646
					c0.072,0.511,0.127,1.018,0.168,1.523c0.061,0.724,0.091,1.443,0.089,2.152c-0.003,0.581-0.025,1.144-0.069,1.687
					c-0.038,0.471-0.091,0.925-0.159,1.365c-0.068,0.438-0.15,0.86-0.246,1.267v0.002c-0.285,1.215-0.694,2.29-1.21,3.212
					c-0.112,0.199-0.228,0.392-0.348,0.577c-0.529,0.808-1.149,1.477-1.848,1.997c-0.219,0.164-0.446,0.311-0.68,0.445l0,0
					l-3.941,2.276l-0.873-1.82c-0.231-0.051-0.465-0.112-0.701-0.183c-0.885-0.265-1.803-0.669-2.743-1.216
					c-0.546-0.319-1.083-0.676-1.611-1.071c-0.677-0.506-1.339-1.07-1.979-1.687c-4.321-4.157-7.723-10.662-8.969-17.137
					c-0.186-0.962-0.322-1.923-0.408-2.874c-0.071-0.794-0.108-1.583-0.105-2.359c0.004-1.199,0.099-2.318,0.276-3.348
					C402.437,53.04,402.666,52.177,402.955,51.39z"/>
				<g id="XMLID_1316_">
					<path id="XMLID_00000003082156597304573670000010535151214586202296_" style="opacity:0.25;fill:#FFFFFF;" d="M426.685,64.739
						l-8.458,4.885l-1.114-3.218l8.468-4.891C426.001,62.573,426.371,63.651,426.685,64.739z"/>
					<path id="XMLID_3760_" style="opacity:0.25;fill:#FFFFFF;" d="M406.172,46.997L406.172,46.997
						c0.494-0.285,1.018-0.507,1.573-0.657c0.191-0.051,0.386-0.093,0.584-0.128c0.917-0.159,1.9-0.138,2.935,0.08
						c0.128,0.027,0.258,0.06,0.388,0.093l-8.703,5.027c0.003-0.007,0.005-0.015,0.007-0.022l-0.953-1.989L406.172,46.997z"/>
					<path id="XMLID_00000076605244868770455700000004057400761751210113_" style="opacity:0.25;fill:#FFFFFF;" d="M407.078,59.35
						l-1.115-1.34l12.685-7.302c0.403,0.399,0.797,0.819,1.183,1.257L407.078,59.35z"/>
					<path id="XMLID_00000084516365959859266140000000786666190896567993_" style="opacity:0.25;fill:#FFFFFF;" d="M422.526,55.555
						L411.538,61.9l-1.21-3.163l10.232-5.909C421.252,53.682,421.909,54.595,422.526,55.555z"/>
					<path id="XMLID_00000131359228705738602850000004981767543436699803_" style="opacity:0.4;fill:#FFFFFF;" d="M406.172,46.997
						L406.172,46.997c0.494-0.285,1.018-0.507,1.573-0.657c0.191-0.051,0.386-0.093,0.584-0.128c0.917-0.159,1.9-0.138,2.935,0.08
						c0.347,0.072,0.701,0.167,1.058,0.285c0.359,0.115,0.724,0.255,1.094,0.42c0.462,0.202,0.93,0.441,1.404,0.719
						c0.495,0.29,0.983,0.609,1.464,0.961c0.362,0.264,0.719,0.545,1.071,0.844c4.821,4.069,8.683,11.104,10.026,18.102
						l-17.649,10.191c-3.475-4.101-6.144-9.688-7.216-15.257c-0.186-0.962-0.322-1.923-0.408-2.874
						c-0.071-0.794-0.108-1.583-0.105-2.359c0.004-1.199,0.099-2.318,0.276-3.348c0.159-0.937,0.388-1.799,0.678-2.586l-0.953-1.989
						L406.172,46.997z"/>
				</g>
				<path id="XMLID_00000173870879736854778340000009900996943575300280_" style="opacity:0.1;" d="M419.392,85.671l-0.873-1.82
					c-0.231-0.051-0.465-0.112-0.701-0.183c-0.885-0.265-1.803-0.669-2.743-1.216c-0.546-0.319-1.083-0.676-1.611-1.071
					c-0.677-0.506-1.339-1.07-1.979-1.687c-0.604-0.581-1.188-1.213-1.753-1.879l17.649-10.191c0.099,0.515,0.185,1.03,0.256,1.544
					c0.072,0.511,0.127,1.018,0.168,1.523c0.061,0.724,0.091,1.443,0.089,2.152c-0.003,0.581-0.025,1.144-0.069,1.687
					c-0.038,0.471-0.091,0.925-0.159,1.365c-0.068,0.438-0.15,0.86-0.246,1.267v0.002c-0.285,1.215-0.694,2.29-1.21,3.212
					c-0.112,0.199-0.228,0.392-0.348,0.577c-0.529,0.808-1.149,1.477-1.848,1.997c-0.219,0.164-0.446,0.311-0.68,0.445l0,0
					L419.392,85.671z"/>
				<path id="XMLID_00000005232972106305334350000008058643978219133581_" style="opacity:0.1;" d="M426.209,80.377
					c-0.112,0.199-0.228,0.392-0.348,0.577c-0.529,0.808-1.149,1.477-1.848,1.997c-0.219,0.164-0.446,0.311-0.68,0.445l0,0
					l-3.941,2.276l-0.873-1.82c-0.012-0.003-0.023-0.006-0.035-0.008l-0.063-0.746l8.766-5.063
					C426.927,78.898,426.599,79.681,426.209,80.377z"/>
			</g>
			<g id="XMLID_00000119807345283972282870000004050231274582651561_">
				<path id="XMLID_00000070076068527865297520000014036818722457132212_" style="fill:#4682B4;" d="M397.543,59.898
					c-0.003,0.777,0.034,1.566,0.105,2.36c0.086,0.951,0.222,1.912,0.408,2.874c1.246,6.475,4.648,12.979,8.969,17.137
					c0.64,0.617,1.301,1.181,1.979,1.687c0.528,0.395,1.065,0.752,1.611,1.071c0.94,0.548,1.858,0.951,2.743,1.216
					c1.021,0.307,1.997,0.43,2.915,0.379c1.36-0.069,2.593-0.519,3.647-1.308c0.698-0.519,1.318-1.189,1.848-1.996
					c0.121-0.185,0.237-0.378,0.348-0.577c0.516-0.922,0.926-1.997,1.211-3.212v-0.002c0.096-0.407,0.178-0.83,0.246-1.268
					c0.068-0.439,0.121-0.894,0.159-1.365c0.044-0.543,0.066-1.106,0.069-1.687c0.003-0.709-0.027-1.429-0.088-2.152
					c-0.04-0.505-0.096-1.013-0.168-1.524c-1.034-7.49-5.106-15.277-10.282-19.646c-0.352-0.299-0.71-0.58-1.071-0.844
					c-0.481-0.352-0.969-0.672-1.464-0.961c-0.474-0.278-0.943-0.517-1.404-0.719c-0.369-0.165-0.734-0.304-1.093-0.42
					c-0.358-0.118-0.711-0.213-1.058-0.285c-1.035-0.218-2.018-0.239-2.935-0.08c-0.198,0.035-0.393,0.077-0.584,0.128
					c-0.835,0.225-1.604,0.606-2.298,1.137c-1.048,0.801-1.918,1.94-2.56,3.385c-0.434,0.975-0.766,2.085-0.977,3.325
					C397.642,57.58,397.547,58.699,397.543,59.898z"/>
				<path id="XMLID_00000003824213682742895750000011664969862940034183_" style="opacity:0.1;fill:#FFFFFF;" d="M397.543,59.898
					c-0.003,0.777,0.034,1.566,0.105,2.36c0.086,0.951,0.222,1.912,0.408,2.874c1.246,6.475,4.648,12.979,8.969,17.137
					c0.64,0.617,1.301,1.181,1.979,1.687c0.528,0.395,1.065,0.752,1.611,1.071c0.94,0.548,1.858,0.951,2.743,1.216
					c1.021,0.307,1.997,0.43,2.915,0.379c1.36-0.069,2.593-0.519,3.647-1.308c0.698-0.519,1.318-1.189,1.848-1.996
					c0.121-0.185,0.237-0.378,0.348-0.577c0.516-0.922,0.926-1.997,1.211-3.212v-0.002c0.096-0.407,0.178-0.83,0.246-1.268
					c0.068-0.439,0.121-0.894,0.159-1.365c0.044-0.543,0.066-1.106,0.069-1.687c0.003-0.709-0.027-1.429-0.088-2.152
					c-0.04-0.505-0.096-1.013-0.168-1.524c-1.034-7.49-5.106-15.277-10.282-19.646c-0.352-0.299-0.71-0.58-1.071-0.844
					c-0.481-0.352-0.969-0.672-1.464-0.961c-0.474-0.278-0.943-0.517-1.404-0.719c-0.369-0.165-0.734-0.304-1.093-0.42
					c-0.358-0.118-0.711-0.213-1.058-0.285c-1.035-0.218-2.018-0.239-2.935-0.08c-0.198,0.035-0.393,0.077-0.584,0.128
					c-0.835,0.225-1.604,0.606-2.298,1.137c-1.048,0.801-1.918,1.94-2.56,3.385c-0.434,0.975-0.766,2.085-0.977,3.325
					C397.642,57.58,397.547,58.699,397.543,59.898z"/>
				<path id="XMLID_1290_" style="opacity:0.05;" d="M423.287,69.977c0.1,0.519,0.187,1.037,0.258,1.554
					c0.071,0.511,0.127,1.018,0.168,1.524c0.061,0.723,0.091,1.443,0.088,2.152c-0.003,0.581-0.025,1.144-0.069,1.687
					c-0.038,0.47-0.091,0.925-0.159,1.365c-0.068,0.438-0.15,0.86-0.246,1.268v0.002c-0.285,1.216-0.694,2.29-1.211,3.212
					c-0.112,0.199-0.227,0.392-0.348,0.577c-0.529,0.807-1.149,1.477-1.848,1.996c-1.054,0.789-2.287,1.238-3.647,1.308
					c-0.918,0.051-1.894-0.073-2.915-0.379c-0.885-0.265-1.803-0.668-2.743-1.216c-0.485-0.283-0.962-0.601-1.433-0.945
					L423.287,69.977z"/>
				<path id="XMLID_1288_" style="opacity:0.05;" d="M423.084,80.433c-0.258,0.85-0.583,1.62-0.967,2.306
					c-0.112,0.199-0.227,0.392-0.348,0.577c-0.529,0.807-1.149,1.477-1.848,1.996c-0.871,0.651-1.865,1.067-2.95,1.233
					L423.084,80.433z"/>
				<g id="XMLID_00000021112812294759306330000016094960260749463183_">
					<path id="XMLID_1287_" style="opacity:0.15;fill:#FFFFFF;" d="M421.492,63.884c0.42,1.056,0.789,2.134,1.102,3.22l-15.36,15.36
						c-0.069-0.065-0.14-0.129-0.209-0.195c-0.651-0.626-1.277-1.311-1.882-2.036L421.492,63.884z"/>
					<path id="XMLID_1286_" style="opacity:0.15;fill:#FFFFFF;" d="M416.47,55.191c0.692,0.854,1.349,1.768,1.965,2.728
						l-16.907,16.907c-0.551-1.031-1.052-2.098-1.503-3.19L416.47,55.191z"/>
					<path id="XMLID_00000154389633079465135430000009519156107097458313_" style="opacity:0.15;fill:#FFFFFF;" d="M414.552,53.068
						c0.406,0.402,0.804,0.825,1.193,1.266l-16.165,16.165c-0.226-0.605-0.438-1.215-0.63-1.83L414.552,53.068z"/>
					<path id="XMLID_1129_" style="opacity:0.15;fill:#FFFFFF;" d="M397.581,58.73L397.581,58.73
						c0.017-0.313,0.042-0.618,0.072-0.919c0.01-0.1,0.02-0.201,0.031-0.3c0.012-0.102,0.024-0.204,0.038-0.304
						c0.03-0.222,0.061-0.443,0.098-0.657c0.211-1.239,0.542-2.35,0.977-3.325c0.642-1.444,1.512-2.584,2.56-3.385
						c0.693-0.531,1.463-0.912,2.298-1.137c0.191-0.051,0.386-0.093,0.584-0.128c0.917-0.159,1.9-0.138,2.935,0.08
						c0.129,0.027,0.259,0.06,0.39,0.093L397.581,58.73z"/>
				</g>
				<path id="XMLID_00000097494131348687413240000014141441408411076282_" style="fill:#4682B4;" d="M400.889,61.905
					c0,6.911,4.029,14.889,9.127,18.283c0.216,0.144,0.436,0.282,0.657,0.409c5.403,3.12,9.782-0.191,9.782-7.395
					c0-7.204-4.379-15.573-9.782-18.693c-0.22-0.127-0.44-0.244-0.657-0.349C404.918,51.666,400.889,54.995,400.889,61.905z"/>
				<path id="XMLID_1117_" style="opacity:0.4;" d="M400.889,61.905c0,6.911,4.029,14.889,9.127,18.283
					c0.216,0.144,0.436,0.282,0.657,0.409c5.403,3.12,9.782-0.191,9.782-7.395c0-7.204-4.379-15.573-9.782-18.693
					c-0.22-0.127-0.44-0.244-0.657-0.349C404.918,51.666,400.889,54.995,400.889,61.905z"/>
				<path id="XMLID_00000150073414180343497350000007938330314780300948_" style="fill:#4682B4;" d="M401.324,62.157
					c0,0.222,0.004,0.446,0.014,0.672c0.247,6.441,3.999,13.662,8.707,16.797c0.043,0.028,0.085,0.056,0.128,0.084
					c0.165,0.107,0.331,0.211,0.499,0.307c1.026,0.592,2.014,0.943,2.937,1.068c2.193,0.299,4.027-0.662,5.164-2.63
					c0.666-1.155,1.094-2.657,1.211-4.457c0.023-0.338,0.035-0.687,0.035-1.048c0-0.331-0.009-0.662-0.029-0.998
					c-0.039-0.702-0.12-1.413-0.238-2.124c-0.824-4.976-3.481-10.052-6.856-13.1c-0.482-0.436-0.98-0.831-1.49-1.178
					c-0.242-0.165-0.488-0.32-0.735-0.462c-0.211-0.122-0.421-0.233-0.627-0.334c-0.059-0.029-0.117-0.057-0.176-0.082
					c-1.4-0.651-2.711-0.839-3.866-0.616c-1.969,0.379-3.485,1.948-4.21,4.453C401.49,59.567,401.324,60.789,401.324,62.157z"/>
				<path id="XMLID_965_" style="opacity:0.5;" d="M401.324,62.157c0,0.222,0.004,0.446,0.014,0.672
					c0.247,6.441,3.999,13.662,8.707,16.797c0.043,0.028,0.085,0.056,0.128,0.084c0.165,0.107,0.331,0.211,0.499,0.307
					c1.026,0.592,2.014,0.943,2.937,1.068c2.193,0.299,4.027-0.662,5.164-2.63c0.666-1.155,1.094-2.657,1.211-4.457
					c0.023-0.338,0.035-0.687,0.035-1.048c0-0.331-0.009-0.662-0.029-0.998c-0.039-0.702-0.12-1.413-0.238-2.124
					c-0.824-4.976-3.481-10.052-6.856-13.1c-0.482-0.436-0.98-0.831-1.49-1.178c-0.242-0.165-0.488-0.32-0.735-0.462
					c-0.211-0.122-0.421-0.233-0.627-0.334c-0.059-0.029-0.117-0.057-0.176-0.082c-1.4-0.651-2.711-0.839-3.866-0.616
					c-1.969,0.379-3.485,1.948-4.21,4.453C401.49,59.567,401.324,60.789,401.324,62.157z"/>
				<path id="XMLID_961_" style="fill:#4682B4;" d="M402.89,61.927c-0.01-0.226-0.014-0.45-0.014-0.672
					c0-1.368,0.165-2.59,0.471-3.646c0.423-1.462,1.117-2.602,2.012-3.376c0.21-0.072,0.425-0.132,0.647-0.175
					c1.155-0.223,2.465-0.035,3.866,0.616c0.059,0.025,0.117,0.054,0.176,0.082c0.205,0.101,0.416,0.213,0.627,0.334
					c0.247,0.143,0.493,0.297,0.735,0.462c0.51,0.346,1.008,0.741,1.49,1.178c3.375,3.048,6.032,8.123,6.856,13.1
					c0.118,0.712,0.199,1.422,0.238,2.124c0.02,0.335,0.029,0.667,0.029,0.998c0,0.361-0.012,0.709-0.035,1.048
					c-0.117,1.8-0.545,3.302-1.211,4.457c-0.348,0.602-0.762,1.109-1.23,1.515c-0.727,0.252-1.527,0.33-2.383,0.213
					c-0.923-0.126-1.911-0.476-2.937-1.068c-0.168-0.097-0.334-0.2-0.499-0.307c-0.043-0.028-0.085-0.056-0.127-0.084
					C406.889,75.59,403.137,68.368,402.89,61.927z"/>
				<path id="XMLID_955_" style="opacity:0.25;" d="M402.89,61.927c-0.01-0.226-0.014-0.45-0.014-0.672
					c0-1.368,0.165-2.59,0.471-3.646c0.423-1.462,1.117-2.602,2.012-3.376c0.21-0.072,0.425-0.132,0.647-0.175
					c1.155-0.223,2.465-0.035,3.866,0.616c0.059,0.025,0.117,0.054,0.176,0.082c0.205,0.101,0.416,0.213,0.627,0.334
					c0.247,0.143,0.493,0.297,0.735,0.462c0.51,0.346,1.008,0.741,1.49,1.178c3.375,3.048,6.032,8.123,6.856,13.1
					c0.118,0.712,0.199,1.422,0.238,2.124c0.02,0.335,0.029,0.667,0.029,0.998c0,0.361-0.012,0.709-0.035,1.048
					c-0.117,1.8-0.545,3.302-1.211,4.457c-0.348,0.602-0.762,1.109-1.23,1.515c-0.727,0.252-1.527,0.33-2.383,0.213
					c-0.923-0.126-1.911-0.476-2.937-1.068c-0.168-0.097-0.334-0.2-0.499-0.307c-0.043-0.028-0.085-0.056-0.127-0.084
					C406.889,75.59,403.137,68.368,402.89,61.927z"/>
			</g>
			<g id="XMLID_946_">
				<path id="XMLID_00000007404143057870383490000000694542211389586602_" style="fill:#F5F5F5;" d="M404.237,48.576
					c5.65-0.638,10.245,4.042,13.313,8.249c4.43,6.528,7.236,14.798,5.705,22.703l0.002-0.017c-0.5,2.198-1.505,4.404-3.335,5.803
					c1.87-1.371,2.954-3.574,3.48-5.788L423.4,79.54c1.411-6.471-0.363-13.27-3.325-19.06
					C416.905,54.751,411.53,47.796,404.237,48.576z"/>
			</g>
			<g>
				<path style="fill:#4682B4;" d="M417.664,73.043c-0.093-2.512-1.402-4.271-2.943-5.728l0.74,0.191l2.137-1.234
					c-0.096-0.48-0.229-0.937-0.384-1.366c-0.287-0.78-0.669-1.485-1.112-2.12c-0.786-1.126-1.764-2.028-2.738-2.721l-0.081-2.214
					l-2.645-1.528l-2.137,1.234l0.017,0.563l0.004,0.121c-0.171,0.055-0.346,0.132-0.523,0.238c-0.06,0.036-0.111,0.074-0.162,0.112
					c-0.249,0.183-1.481,0.825-1.975,1.121c-0.06,0.036-0.111,0.074-0.162,0.112c-0.564,0.414-0.87,1.21-0.821,2.445
					c-0.005,0.003-0.005,0.003-0.005,0.003c0.053,1.315,0.469,2.443,1.073,3.419c0.051,0.083,0.111,0.168,0.163,0.25l0.017,0.028
					c0.06,0.085,0.12,0.17,0.18,0.255c0.053,0.074,0.107,0.148,0.165,0.219c0.026,0.03,0.047,0.063,0.069,0.087
					c0.043,0.057,0.086,0.115,0.131,0.163c0.373,0.457,0.779,0.872,1.186,1.264c0.183,0.174,0.372,0.344,0.562,0.509l-0.974-0.243
					l-2.137,1.234c0.57,2.269,1.941,4.253,4.028,5.779l0.086,2.211l2.67,1.478l2.137-1.234L414.203,77
					c0.155-0.043,0.3-0.1,0.429-0.18l0.016-0.01c0.323-0.21,1.752-0.994,2.12-1.224l0.016-0.01
					C417.397,75.178,417.714,74.353,417.664,73.043z"/>
				<path style="opacity:0.15;" d="M405.962,59.656c0.545-0.32,1.642-0.896,1.874-1.065c0.056-0.038,0.106-0.075,0.163-0.113
					c0.175-0.107,0.351-0.182,0.526-0.238l0.056,1.592C408.581,59.831,407.334,58.91,405.962,59.656z"/>
				<path style="opacity:0.45;" d="M412.04,72.557c0.025,0.664-0.357,0.996-1.466,0.388c-1.178-0.658-1.867-1.635-2.068-2.688
					l-3.196-0.802l2.137-1.228l0.971,0.238c0.019,0.019,0.038,0.031,0.056,0.05c0.294,0.263,0.589,0.514,0.871,0.752
					c0.119,0.094,0.232,0.188,0.338,0.282c0.808,0.664,1.404,1.172,1.779,1.642c0.244,0.294,0.407,0.57,0.495,0.871
					C412.009,72.218,412.034,72.388,412.04,72.557z"/>
				<path style="opacity:0.2;" d="M414.201,77.005l0.025,0.689l-2.137,1.228l-0.081-2.205
					C412.879,77.055,413.625,77.162,414.201,77.005z"/>
				<path style="opacity:0.15;" d="M411.144,59.086l-2.644-1.529l2.137-1.234l2.651,1.529l0.075,2.212
					c0.978,0.695,1.955,1.598,2.738,2.725c0.445,0.633,0.827,1.341,1.115,2.118c0.15,0.432,0.288,0.883,0.382,1.366l-2.137,1.234
					c-0.094-0.482-0.232-0.94-0.382-1.366c-0.288-0.783-0.671-1.485-1.115-2.118c-0.783-1.128-1.761-2.03-2.738-2.726
					L411.144,59.086z"/>
				<path style="opacity:0.2;" d="M413.362,60.063c0.917,0.517,1.733,1.222,2.404,2.043c0.662,0.825,1.193,1.776,1.449,2.8
					c-0.467-0.943-1.017-1.818-1.671-2.62c-0.323-0.403-0.674-0.783-1.038-1.153C414.141,60.763,413.753,60.416,413.362,60.063z"/>
				<path style="opacity:0.35;" d="M416.783,75.577l-0.013,0.006c-0.37,0.232-1.798,1.015-2.124,1.228
					c0.614-0.401,0.934-1.222,0.883-2.531c-0.113-2.913-1.848-4.812-3.69-6.403c-1.717-1.472-3.233-2.387-3.289-3.797
					c-0.031-0.883,0.545-0.959,1.416-0.476c1.397,0.771,1.986,2.168,2.124,3.033l2.632,0.677l0.006,0.006
					c1.541,1.46,2.844,3.22,2.938,5.727C417.716,74.355,417.397,75.176,416.783,75.577z"/>
				<polygon style="fill:#4682B4;" points="410.643,69.023 408.506,70.257 405.309,69.458 407.446,68.224 				"/>
				<polygon style="opacity:0.15;" points="410.643,69.023 408.506,70.257 405.309,69.458 407.446,68.224 				"/>
				<g>
					<polygon style="fill:#4682B4;" points="412.093,78.926 412.007,76.714 414.203,77 414.229,77.692 					"/>
					<polygon style="opacity:0.45;" points="412.093,78.926 412.007,76.714 414.203,77 414.229,77.692 					"/>
				</g>
				<g>
					<path id="XMLID_943_" style="fill:#4682B4;" d="M408.518,58.119l0.06,1.712c0,0-1.307-0.964-2.716-0.119
						c-0.06,0.036-0.111,0.074-0.162,0.112c-0.564,0.414-0.87,1.21-0.821,2.445c-0.005,0.003-0.005,0.003-0.005,0.003
						c0.053,1.315,0.468,2.443,1.073,3.419c0.051,0.083,0.111,0.168,0.163,0.25l0.017,0.028c0.06,0.085,0.12,0.17,0.18,0.255
						c0.053,0.074,0.107,0.148,0.165,0.219c0.026,0.03,0.047,0.063,0.069,0.087c0.043,0.058,0.086,0.115,0.131,0.163
						c0.373,0.457,0.779,0.872,1.186,1.264c0.2,0.19,0.405,0.377,0.613,0.555c0.296,0.261,0.594,0.514,0.877,0.753
						c0.119,0.095,0.228,0.188,0.339,0.281c0.808,0.665,1.399,1.174,1.778,1.642c0.242,0.294,0.407,0.573,0.494,0.869
						c0.047,0.161,0.075,0.326,0.083,0.495c0.025,0.667-0.357,1.002-1.468,0.389c-1.181-0.653-1.87-1.632-2.067-2.687l-3.197-0.799
						c0.57,2.269,1.941,4.254,4.028,5.779l0.086,2.211l2.67,1.478l-0.086-2.211c1.114,0.437,2.017,0.485,2.625,0.105l0.016-0.01
						c0.612-0.398,0.929-1.223,0.879-2.533c-0.108-2.909-1.845-4.81-3.688-6.399c-1.719-1.473-3.233-2.388-3.288-3.801
						c-0.031-0.882,0.543-0.954,1.417-0.472c1.394,0.768,1.982,2.163,2.124,3.031l3.368,0.87c-0.096-0.48-0.229-0.937-0.384-1.367
						c-0.287-0.78-0.669-1.485-1.112-2.12c-0.786-1.126-1.764-2.028-2.738-2.721l-0.081-2.214l-2.645-1.529L408.518,58.119z"/>
					<path id="XMLID_00000062913852376194427210000001100358858370462879_" style="opacity:0.1;fill:#FFFFFF;" d="M408.518,58.119
						l0.06,1.712c0,0-1.307-0.964-2.716-0.119c-0.06,0.036-0.111,0.074-0.162,0.112c-0.564,0.414-0.87,1.21-0.821,2.445
						c-0.005,0.003-0.005,0.003-0.005,0.003c0.053,1.315,0.468,2.443,1.073,3.419c0.051,0.083,0.111,0.168,0.163,0.25l0.017,0.028
						c0.06,0.085,0.12,0.17,0.18,0.255c0.053,0.074,0.107,0.148,0.165,0.219c0.026,0.03,0.047,0.063,0.069,0.087
						c0.043,0.058,0.086,0.115,0.131,0.163c0.373,0.457,0.779,0.872,1.186,1.264c0.2,0.19,0.405,0.377,0.613,0.555
						c0.296,0.261,0.594,0.514,0.877,0.753c0.119,0.095,0.228,0.188,0.339,0.281c0.808,0.665,1.399,1.174,1.778,1.642
						c0.242,0.294,0.407,0.573,0.494,0.869c0.047,0.161,0.075,0.326,0.083,0.495c0.025,0.667-0.357,1.002-1.468,0.389
						c-1.181-0.653-1.87-1.632-2.067-2.687l-3.197-0.799c0.57,2.269,1.941,4.254,4.028,5.779l0.086,2.211l2.67,1.478l-0.086-2.211
						c1.114,0.437,2.017,0.485,2.625,0.105l0.016-0.01c0.612-0.398,0.929-1.223,0.879-2.533c-0.108-2.909-1.845-4.81-3.688-6.399
						c-1.719-1.473-3.233-2.388-3.288-3.801c-0.031-0.882,0.543-0.954,1.417-0.472c1.394,0.768,1.982,2.163,2.124,3.031l3.368,0.87
						c-0.096-0.48-0.229-0.937-0.384-1.367c-0.287-0.78-0.669-1.485-1.112-2.12c-0.786-1.126-1.764-2.028-2.738-2.721l-0.081-2.214
						l-2.645-1.529L408.518,58.119z"/>
				</g>
				<path id="XMLID_00000166658688742087228730000010382186327453230217_" style="fill:#FFFFFF;" d="M415.527,74.277
					c-0.073-1.064-0.363-2.107-0.876-3.033c-0.502-0.933-1.195-1.748-1.959-2.482c-0.754-0.748-1.595-1.4-2.409-2.091
					c-0.404-0.349-0.803-0.709-1.143-1.126c-0.333-0.42-0.58-0.928-0.588-1.467c0.034,0.538,0.302,1.022,0.647,1.419
					c0.346,0.4,0.75,0.747,1.161,1.083c0.826,0.668,1.672,1.325,2.441,2.071c0.761,0.749,1.468,1.577,1.956,2.538
					c0.243,0.478,0.442,0.98,0.571,1.501C415.451,73.211,415.513,73.744,415.527,74.277z"/>
				<g>
					<polygon style="fill:#4682B4;" points="411.147,59.085 413.284,57.851 413.364,60.065 411.227,61.299 					"/>
					<polygon style="opacity:0.35;" points="411.147,59.085 413.284,57.851 413.364,60.065 411.227,61.299 					"/>
				</g>
				<g>
					<polygon style="fill:#FAFAFA;" points="408.502,57.556 410.903,59.214 411.227,61.299 411.147,59.085 					"/>
					<polygon style="fill:#FAFAFA;" points="409.337,75.237 409.639,77.309 412.093,78.926 409.423,77.448 					"/>
				</g>
				<g>
					<path style="opacity:0.15;fill:#FFFFFF;" d="M405.31,69.458c0.102,0.408,0.24,0.803,0.394,1.192l0.875-0.875L405.31,69.458z"/>
					<path style="opacity:0.15;fill:#FFFFFF;" d="M415.52,74.178c-0.064-1.28-0.445-2.364-1.011-3.311l-5.142,5.142l0.056,1.439
						l1.82,1.008l0.8-0.8l-0.036-0.941c0.258,0.101,0.504,0.179,0.739,0.238L415.52,74.178z"/>
					<path style="opacity:0.15;fill:#FFFFFF;" d="M404.907,62.712c0.074,0.705,0.253,1.353,0.508,1.951l5.635-5.634l-1.558-0.901
						l-0.939,0.939l0.027,0.764c0,0-0.197-0.144-0.519-0.272L404.907,62.712z"/>
					<path style="opacity:0.15;fill:#FFFFFF;" d="M406.127,65.971c0.06,0.085,0.12,0.17,0.18,0.255
						c0.053,0.074,0.107,0.148,0.165,0.219c0.026,0.03,0.046,0.063,0.069,0.087c0.043,0.058,0.086,0.115,0.131,0.163
						c0.373,0.457,0.779,0.872,1.186,1.264c0.092,0.087,0.187,0.169,0.281,0.255l1.862-1.863c-0.837-0.733-1.417-1.41-1.45-2.274
						c-0.031-0.882,0.543-0.954,1.417-0.472c0.639,0.352,1.102,0.837,1.437,1.342l1.836-1.836c-0.627-0.712-1.321-1.318-2.015-1.812
						l-0.031-0.835l-5.241,5.241c0.049,0.079,0.106,0.16,0.155,0.238L406.127,65.971z"/>
				</g>
			</g>
		</g>
		<g>
			<polygon id="XMLID_00000066499885466584002510000010160203758909804677_" style="fill:#FFFFFF;" points="418.075,55.515 
				418.325,52.221 418.576,55.515 421.87,55.766 418.576,56.017 418.325,59.311 418.075,56.017 414.78,55.766 			"/>
			<polygon id="XMLID_00000089539415184261293380000009294133430412375984_" style="fill:#FFFFFF;" points="420.659,58.218 
				420.78,56.621 420.902,58.218 422.498,58.339 420.902,58.461 420.78,60.057 420.659,58.461 419.062,58.339 			"/>
		</g>
	</g>
</g>
<g id="Money_Icons">
	<g id="Money_Icon_00000112593152554688281560000004894779002475017346_">
		<g>
			<path style="fill:#F0F0F0;" d="M63.767,178.874l-1.319-4.459c-3.828,0.416-8.697-0.308-11.489-5.564l-0.34-0.638l8.297-5.031
				l0.368,0.755c0.334,0.694,1.673,2.888,4.755,1.975c0.832-0.247,1.449-0.605,1.783-1.038c0.315-0.408,0.382-0.896,0.208-1.488
				c-0.473-1.601-2.148-1.591-5.319-1.421c-0.715,0.038-1.466,0.079-2.244,0.091c-4.479,0.035-9.303-0.762-11.144-6.997
				c-1.49-5.042,0.473-9.327,5.392-11.846l-1.318-4.462l7.39-2.185l1.32,4.47c4.775-0.439,8.523,1.283,10.853,5l0.41,0.653
				l-7.965,4.897l-0.379-0.729c-1.015-1.949-2.992-1.836-4.474-1.397c-1.739,0.514-2.456,1.34-2.126,2.454
				c0.448,1.521,1.831,1.533,6.122,1.35c4.336-0.134,10.878-0.335,12.986,6.799c1.506,5.096-0.589,9.5-5.752,12.175l1.32,4.467
				L63.767,178.874z M63.542,172.72l1.257,4.255l4.405-1.301l-1.256-4.247l0.593-0.28c2.843-1.342,7.343-4.508,5.529-10.649
				c-1.774-6-7.147-5.836-11.464-5.704c-4.406,0.188-6.839,0.291-7.646-2.445c-0.218-0.74-0.633-3.233,3.16-4.353
				c2.512-0.744,4.593-0.209,5.831,1.461l5.283-3.247c-2.136-2.927-5.355-4.133-9.578-3.584l-0.647,0.084l-1.252-4.243l-4.458,1.317
				l1.256,4.252l-0.602,0.278c-3.295,1.52-6.866,4.543-5.162,10.312c1.467,4.955,4.921,5.942,9.659,5.9
				c0.752-0.012,1.484-0.051,2.182-0.089c3.1-0.163,6.027-0.32,6.865,2.516c0.316,1.067,0.155,2.055-0.462,2.856
				c-0.541,0.7-1.402,1.228-2.562,1.571c-2.94,0.865-5.043-0.44-6.145-2.052l-5.659,3.431c2.598,4.189,6.947,4.534,10.217,4.057
				L63.542,172.72z"/>
		</g>
	</g>
	<g id="Money_Icon_00000050653443758953843090000008314985168748071084_">
		<g>
			<path style="fill:#E0E0E0;" d="M442.212,356.314l-1.726-4.332c-3.785,0.767-8.713,0.49-11.984-4.503l-0.398-0.606l7.825-5.785
				l0.437,0.721c0.397,0.662,1.935,2.73,4.93,1.537c0.809-0.322,1.391-0.737,1.686-1.2c0.277-0.437,0.299-0.93,0.071-1.505
				c-0.62-1.556-2.291-1.392-5.442-0.931c-0.71,0.104-1.457,0.213-2.233,0.297c-4.469,0.446-9.361,0.091-11.77-5.966
				c-1.95-4.899-0.383-9.358,4.298-12.324l-1.725-4.335l7.18-2.859l1.728,4.343c4.729-0.876,8.63,0.5,11.297,3.999l0.469,0.615
				l-7.505,5.62l-0.445-0.694c-1.192-1.853-3.156-1.559-4.597-0.985c-1.689,0.673-2.329,1.563-1.898,2.645
				c0.587,1.478,1.969,1.363,6.238,0.787c4.318-0.532,10.833-1.332,13.592,5.599c1.971,4.951,0.283,9.542-4.628,12.686l1.727,4.34
				L442.212,356.314z M441.423,350.189l1.646,4.134l4.28-1.703l-1.644-4.126l0.566-0.334c2.716-1.601,6.92-5.176,4.545-11.142
				c-2.322-5.83-7.672-5.173-11.972-4.645c-4.383,0.592-6.803,0.917-7.86-1.741c-0.286-0.719-0.929-3.171,2.756-4.637
				c2.44-0.973,4.567-0.63,5.957,0.925l4.978-3.727c-2.402-2.727-5.727-3.636-9.894-2.701l-0.639,0.143l-1.639-4.122l-4.332,1.724
				l1.644,4.131l-0.575,0.332c-3.151,1.82-6.44,5.167-4.21,10.771c1.919,4.814,5.459,5.483,10.187,5.007
				c0.749-0.081,1.478-0.187,2.171-0.289c3.081-0.447,5.989-0.872,7.086,1.883c0.414,1.037,0.343,2.038-0.2,2.894
				c-0.475,0.748-1.287,1.355-2.414,1.804c-2.857,1.133-5.077,0.022-6.325-1.486l-5.337,3.945c2.978,3.945,7.354,3.891,10.576,3.115
				L441.423,350.189z"/>
		</g>
	</g>
	<g id="Money_Icon_00000023997896301386809770000005269641636247604670_">
		<path style="fill:#E0E0E0;" d="M100.131,300.35l-0.858,2.956l-3.988-1.157l0.858-2.955c-2.629-1.187-4.932-3.361-4.632-7.057
			l5.519,0.134c-0.131,1.12,0.264,2.817,2.365,3.426c1.318,0.382,2.362,0.106,2.703-1.068c0.547-1.888-1.701-2.655-4.058-4.111
			c-2.515-1.578-4.707-3.604-3.581-7.485c1.012-3.49,3.726-4.865,7.29-4.372l0.857-2.956l4.023,1.167l-0.857,2.956
			c2.989,1.407,4.498,3.658,4.472,6.547l-5.261-0.097c0.122-1.354-0.637-2.462-2.417-2.978c-1.674-0.486-2.496,0.087-2.754,0.977
			c-0.423,1.46,0.73,2.141,3.24,3.602c2.632,1.574,5.975,3.625,4.694,8.04C106.714,299.479,103.74,300.817,100.131,300.35z"/>
	</g>
	<g id="Money_Icon">
		<path style="fill:#F0F0F0;" d="M263.756,199.972l1.198,3.245l-4.378,1.617l-1.197-3.245c-3.169,0.682-6.704,0.254-8.9-3.289
			l5.08-3.563c0.629,1.1,2.12,2.371,4.426,1.519c1.447-0.534,2.207-1.481,1.731-2.77c-0.766-2.072-3.311-1.265-6.413-1.008
			c-3.328,0.252-6.662-0.116-8.235-4.376c-1.415-3.831,0.122-6.886,3.673-8.819l-1.198-3.245l4.417-1.631l1.198,3.245
			c3.642-0.723,6.51,0.305,8.414,2.934l-4.822,3.424c-0.793-1.306-2.22-1.801-4.174-1.079c-1.838,0.678-2.199,1.745-1.838,2.722
			c0.592,1.603,2.09,1.449,5.335,1.094c3.431-0.333,7.822-0.711,9.612,4.136C269.127,194.79,267.331,197.985,263.756,199.972z"/>
	</g>
</g>
<g id="Paper_Planes">
	<g id="Paper_Plane_00000074402233165458088800000001280907682437649087_">
		<g id="Lines_00000066502479675343899610000000615497372615361952_">
			<g>
				<path style="fill:#455A64;" d="M314.233,355.136c-0.19,0-0.383-0.054-0.553-0.167c-0.838-0.558-1.671-1.103-2.498-1.638
					c-0.464-0.299-0.598-0.918-0.298-1.382c0.298-0.465,0.917-0.598,1.382-0.298c0.835,0.538,1.676,1.09,2.521,1.651
					c0.46,0.306,0.585,0.927,0.279,1.387C314.875,354.98,314.556,355.136,314.233,355.136z"/>
			</g>
			<g>
				<path style="fill:#455A64;" d="M306.423,350.188c-0.175,0-0.353-0.046-0.514-0.143c-1.807-1.085-3.617-2.126-5.379-3.095
					c-0.484-0.266-0.661-0.874-0.395-1.357c0.266-0.484,0.875-0.66,1.357-0.395c1.784,0.98,3.616,2.034,5.445,3.132
					c0.474,0.284,0.627,0.898,0.343,1.372C307.094,350.015,306.763,350.188,306.423,350.188z M295.477,344.185
					c-0.148,0-0.3-0.033-0.441-0.103c-1.879-0.928-3.77-1.805-5.619-2.608c-0.506-0.22-0.738-0.809-0.519-1.315
					c0.219-0.507,0.807-0.74,1.315-0.518c1.879,0.814,3.8,1.706,5.707,2.648c0.495,0.244,0.699,0.844,0.454,1.339
					C296.201,343.981,295.846,344.185,295.477,344.185z M284.023,339.231c-0.115,0-0.231-0.02-0.346-0.061
					c-1.952-0.72-3.924-1.382-5.861-1.967c-0.528-0.159-0.828-0.718-0.668-1.246c0.159-0.528,0.717-0.827,1.246-0.668
					c1.976,0.596,3.986,1.271,5.975,2.004c0.519,0.191,0.783,0.767,0.593,1.284C284.812,338.981,284.43,339.231,284.023,339.231z
					 M272.072,335.633c-0.075,0-0.151-0.009-0.228-0.026c-1.996-0.465-4.035-0.871-6.06-1.206c-0.545-0.09-0.914-0.605-0.823-1.149
					c0.09-0.545,0.602-0.924,1.149-0.823c2.067,0.342,4.149,0.756,6.187,1.231c0.538,0.125,0.873,0.663,0.747,1.2
					C272.937,335.322,272.526,335.633,272.072,335.633z M228.634,334.597c-0.492,0-0.92-0.362-0.989-0.863
					c-0.076-0.547,0.306-1.052,0.854-1.127c2.126-0.295,4.223-0.55,6.232-0.759c0.552-0.044,1.042,0.344,1.099,0.892
					c0.057,0.55-0.343,1.041-0.892,1.099c-1.986,0.206-4.061,0.458-6.165,0.749C228.726,334.594,228.679,334.597,228.634,334.597z
					 M259.763,333.594c-0.033,0-0.067-0.002-0.102-0.005c-2.023-0.204-4.099-0.349-6.167-0.431
					c-0.552-0.021-0.981-0.486-0.959-1.039c0.022-0.552,0.517-0.999,1.039-0.959c2.107,0.083,4.224,0.23,6.288,0.438
					c0.549,0.056,0.949,0.546,0.894,1.096C260.706,333.21,260.271,333.594,259.763,333.594z M241.053,333.325
					c-0.523,0-0.964-0.407-0.997-0.938c-0.034-0.552,0.385-1.026,0.936-1.061c2.124-0.133,4.239-0.215,6.287-0.244
					c0.568-0.047,1.007,0.434,1.015,0.985c0.008,0.553-0.434,1.007-0.985,1.015c-2.017,0.028-4.1,0.109-6.191,0.24
					C241.095,333.324,241.074,333.325,241.053,333.325z"/>
			</g>
			<g>
				<path style="fill:#455A64;" d="M219.477,336.065c-0.475,0-0.896-0.339-0.983-0.823c-0.098-0.543,0.264-1.063,0.808-1.161
					c0.998-0.18,1.988-0.352,2.97-0.517c0.537-0.098,1.061,0.276,1.151,0.821c0.091,0.544-0.276,1.06-0.821,1.151
					c-0.974,0.163-1.956,0.335-2.946,0.513C219.595,336.06,219.536,336.065,219.477,336.065z"/>
			</g>
		</g>
		<g id="Paper_Plane_00000147904775211874417360000015364675286305827975_">
			<polygon style="fill:#F0F0F0;" points="457.774,436.728 326.163,352.002 322.568,366.977 			"/>
			<polygon style="fill:#E0E0E0;" points="349.424,366.977 349.768,381.285 322.568,366.977 326.163,352.002 			"/>
			<polygon style="fill:#455A64;" points="326.162,352.002 322.568,366.977 323.472,367.443 327.251,352.002 			"/>
			<g>
				<g>
					<polygon style="fill:#FFFFFF;" points="253.981,392.81 457.774,436.728 309.225,360.094 					"/>
				</g>
				<polygon style="fill:#F5F5F5;" points="253.981,392.81 337.136,374.492 309.225,360.094 				"/>
				<path style="fill:#455A64;" d="M309.252,360.994l142.886,73.714l-196.025-42.245L309.252,360.994 M309.225,360.094
					l-55.244,32.716l203.793,43.919L309.225,360.094L309.225,360.094z"/>
			</g>
			<g>
				<polygon style="fill:#FFFFFF;" points="457.774,436.728 326.163,352.002 382.528,319.344 				"/>
				<polygon style="fill:#F5F5F5;" points="349.424,366.977 382.528,319.344 326.163,352.002 				"/>
				<path style="fill:#455A64;" d="M382.271,320.403l72.887,113.703l-127.484-82.069L382.271,320.403 M382.528,319.344
					l-56.365,32.658l131.612,84.726L382.528,319.344L382.528,319.344z"/>
			</g>
		</g>
	</g>
	<g id="Paper_Plane_00000035526009613278257540000016495988369402559135_">
		<g id="Lines_00000145038853335287441560000009715535270292083363_">
			<g>
				<path style="fill:#455A64;" d="M130.074,348.297c-0.19,0-0.383-0.054-0.554-0.168c-0.837-0.558-1.669-1.103-2.496-1.638
					c-0.464-0.299-0.598-0.918-0.298-1.382c0.298-0.465,0.917-0.598,1.382-0.298c0.835,0.538,1.675,1.09,2.521,1.653
					c0.459,0.306,0.584,0.927,0.277,1.387C130.714,348.141,130.397,348.297,130.074,348.297z"/>
			</g>
			<g>
				<path style="fill:#455A64;" d="M122.265,343.348c-0.175,0-0.353-0.046-0.514-0.143c-1.807-1.085-3.617-2.126-5.379-3.095
					c-0.484-0.266-0.661-0.874-0.394-1.358c0.266-0.484,0.874-0.661,1.357-0.395c1.784,0.98,3.616,2.034,5.445,3.132
					c0.474,0.284,0.627,0.898,0.343,1.372C122.936,343.175,122.605,343.348,122.265,343.348z M111.319,337.345
					c-0.148,0-0.3-0.033-0.441-0.104c-1.879-0.928-3.77-1.805-5.619-2.607c-0.506-0.22-0.738-0.809-0.519-1.315
					c0.219-0.506,0.806-0.74,1.315-0.519c1.879,0.815,3.8,1.706,5.707,2.648c0.495,0.244,0.699,0.844,0.454,1.339
					C112.043,337.141,111.688,337.345,111.319,337.345z M99.865,332.391c-0.115,0-0.231-0.02-0.346-0.062
					c-1.952-0.72-3.924-1.382-5.861-1.967c-0.528-0.159-0.828-0.718-0.668-1.246c0.158-0.529,0.715-0.828,1.246-0.668
					c1.976,0.596,3.986,1.271,5.975,2.004c0.519,0.191,0.783,0.767,0.593,1.284C100.654,332.141,100.272,332.391,99.865,332.391z
					 M87.914,328.793c-0.075,0-0.151-0.009-0.228-0.026c-1.996-0.465-4.035-0.871-6.059-1.206c-0.545-0.09-0.914-0.604-0.823-1.15
					c0.09-0.545,0.604-0.921,1.149-0.823c2.067,0.342,4.149,0.756,6.187,1.231c0.538,0.125,0.873,0.663,0.747,1.2
					C88.779,328.482,88.368,328.793,87.914,328.793z M44.475,327.757c-0.492,0-0.92-0.362-0.989-0.863
					c-0.076-0.547,0.306-1.052,0.854-1.127c2.126-0.295,4.223-0.55,6.231-0.759c0.558-0.047,1.041,0.343,1.099,0.892
					c0.057,0.55-0.343,1.041-0.892,1.099c-1.986,0.206-4.061,0.458-6.165,0.749C44.567,327.754,44.52,327.757,44.475,327.757z
					 M75.605,326.755c-0.033,0-0.067-0.002-0.102-0.005c-2.023-0.204-4.099-0.349-6.167-0.431c-0.552-0.021-0.981-0.486-0.959-1.039
					c0.021-0.552,0.479-0.989,1.039-0.959c2.107,0.083,4.224,0.23,6.288,0.439c0.549,0.056,0.949,0.546,0.895,1.096
					C76.548,326.371,76.113,326.755,75.605,326.755z M56.895,326.485c-0.523,0-0.964-0.407-0.997-0.938
					c-0.034-0.552,0.385-1.026,0.936-1.061c2.124-0.133,4.239-0.215,6.287-0.244c0.546-0.036,1.007,0.434,1.015,0.985
					c0.008,0.553-0.433,1.007-0.985,1.015c-2.017,0.028-4.1,0.109-6.191,0.24C56.937,326.484,56.916,326.485,56.895,326.485z"/>
			</g>
			<g>
				<path style="fill:#455A64;" d="M35.319,329.226c-0.475,0-0.896-0.339-0.983-0.822c-0.098-0.543,0.263-1.063,0.807-1.162
					c0.998-0.18,1.988-0.353,2.971-0.518c0.536-0.098,1.061,0.275,1.151,0.821c0.091,0.544-0.276,1.06-0.821,1.151
					c-0.973,0.163-1.955,0.334-2.945,0.514C35.438,329.221,35.377,329.226,35.319,329.226z"/>
			</g>
		</g>
		<g id="Paper_Plane">
			<g>
				<polygon style="fill:#4682B4;" points="40.417,398.58 330.336,461.059 119.009,352.038 				"/>
			</g>
			<polygon style="fill:#4682B4;" points="330.336,461.059 143.104,340.527 223.29,294.067 			"/>
			<polygon style="opacity:0.2;" points="40.417,398.58 158.715,372.522 119.009,352.038 			"/>
			<polygon style="opacity:0.2;" points="176.197,361.831 223.29,294.067 143.104,340.527 			"/>
			<polygon style="fill:#4682B4;" points="330.336,461.059 143.104,340.527 137.991,361.831 			"/>
			<polygon style="opacity:0.2;" points="330.336,461.059 143.104,340.527 137.991,361.831 			"/>
			<polygon style="opacity:0.2;" points="176.197,361.831 175.883,381.379 137.991,361.831 143.104,340.527 			"/>
		</g>
	</g>
</g>
<g id="Character">
	<g id="Character_00000102543414658219757400000011478949723391164314_">
		<g id="Bottom_00000019666863993480660960000016713497811170129595_">
			<g id="Bottom_00000042701425760005123240000003453483726327185335_">
				<g>
					<polygon style="fill:#263238;" points="189.755,361.344 193.156,359.596 189.755,358.701 					"/>
					<path style="fill:#263238;" d="M223.886,367.164c0,0-40.781-17.74-41.242-14.987c-0.101,0.606-0.073,1.152,0.047,1.65
						c-0.036-0.049-0.079-0.097-0.111-0.147l0.829,5.109c0,0,2.936,2.439,6.345,2.555c0-0.247,0-1.772,0-2.643
						c1.107,0.446,2.247,0.978,3.602,1.849c2.623,1.688,4.34,4.682,7.151,8.148c2.048,2.526,5.646,3.663,10.96,4.337
						c5.719,0.725,10.729-0.456,12.122-2.02C224.699,369.77,224.098,367.518,223.886,367.164z"/>
					<path style="fill:#FFA8A7;" d="M222.753,366.233c-0.396-0.404-1.866-1.982-3.848-3.695c-1.733-1.498-3.755-3.393-5.923-4.916
						c-0.865-0.607-2.193-1.581-2.94-2.363c-0.718-0.752-1.408-1.531-2.049-2.349c-1.994-2.544-3.627-5.349-5.02-8.261
						c-0.661-1.382-1.86-4.426-1.621-10.111c0.361-8.611,1.008-11.725,0.951-17.319l-19.269,2.956
						c0.612,3.091,1.326,9.998,1.677,13.517c0.535,5.352,1.325,5.849-0.668,11.227c-0.587,1.583-1.476,3.111-1.528,4.798
						c-0.085,2.743,2.094,5.077,4.508,6.38c2.002,1.08,4.293,1.521,6.236,2.674c2.045,1.214,3.648,3.068,5.12,4.901
						c1.391,1.732,2.517,3.786,4.449,4.989c2.141,1.333,4.168,1.727,6.633,2.19c2.834,0.532,6.459,0.537,8.868,0.31
						C222.53,370.763,225.636,369.176,222.753,366.233z"/>
					<g>
						<g>
							<path style="fill:#37474F;" d="M220.384,363.277c-1.768-1.449-4.274-3.524-7.298-5.854c-0.673-0.332-3.352-0.929-6.272,0.674
								c-5.966,3.276-6.919,7.799-6.919,7.799s1.341,3.026,4.979,4.244c6.998,2.944,19.42,1.778,19.491-1.444
								C224.41,366.644,222.53,365.037,220.384,363.277z M184.411,343.749c0,0-0.388,1.063-1.417,3.152
								c-1.029,2.089-1.194,4.157,0.159,6.208c1.791,2.713,3.954,3.522,6.159,4.067
								C191.144,351.038,186.846,345.032,184.411,343.749z"/>
						</g>
					</g>
				</g>
				<g>
					<path style="fill:#263238;" d="M149.47,359.458c1.11,1.865-0.514,8.781-0.35,13.73c0.149,4.497,0.93,11.522-0.276,16.762
						c-1.236,5.369-5.829,10.985-11.914,5.935c-3.771-3.13-5.246-6.84-5.641-13.318c-0.274-4.502,1.642-10.682,3.291-16.166
						c1.926-6.405,2.679-9.834,2.679-9.834L149.47,359.458z"/>
					<path style="fill:#FFA8A7;" d="M137.433,326.068c-0.649,10.471,0.424,17.853,0.362,24.565
						c-0.131,3.124-0.391,5.758-1.135,9.044c-0.965,4.264-2.576,10.187-3.259,12.95c-0.954,3.86-1.667,6.291-0.413,10.667
						c0.098,0.341,0.248,0.668,0.419,0.99c1.801,3.621,6.505,6.422,8.038,6.019c0.412,0.715,1.483,1.162,2.66,0.989
						c0.168-0.025,0.338-0.062,0.509-0.114c0.171-0.051,0.342-0.116,0.512-0.195c1.021-0.477,2.004-1.485,2.598-3.244
						c0.099-0.293,0.188-0.607,0.263-0.943c1.214-5.377,0.479-8.881,0.417-10.994c-0.072-2.439,0.131-5.539,0.424-9.466
						c0.292-3.927,1.472-16.254,2.955-22.129c1.095-4.1,2.462-9.242,3.904-14.725L137.433,326.068z"/>
					<path style="fill:#37474F;" d="M132.374,377.656c3.786-1.581,14.669-1.597,16.299,3.733c-0.054,4.987-0.09,8.367-3.325,12.644
						c-4.298,5.683-9.637-0.538-11.653-4.46C131.678,385.652,131.81,380.332,132.374,377.656z"/>
				</g>
				<path style="fill:#37474F;" d="M155.501,178.548c-5.488,9.395-12.883,22.457-13.568,43.732
					c-0.912,28.357-1.505,48.673-1.708,52.089c-0.204,3.416-2.53,9.642-4.734,26.438c-2.204,16.796,0.203,48.926,0.203,48.926
					s1.884,3.819,8.309,4.571c5.927,0.693,8.71-2.084,8.71-2.084s9.386-44.96,11.915-55.045
					c2.528-10.084,11.154-54.193,11.154-54.193l3.153,27.16c0,0-2.064,9.246-0.652,24.066c1.412,14.819,6.099,43.411,6.099,43.411
					s2.69,2.841,8.995,2.592c5.769-0.228,8.678-3.423,8.678-3.423s5.525-56.421,5.978-73.163
					c0.454-16.742-0.012-58.549-4.611-83.478L155.501,178.548z"/>
				<path style="fill:#263238;" d="M180.946,216.183l-5.164,26.798l3.153,27.16l0.109-25.783l5.124-25.531
					c4.063-0.859,14.512-7.925,15.404-14.732C193.929,212.93,180.946,216.183,180.946,216.183z M150.745,316.887
					c-1.685,8.7-3.255,17.424-4.713,26.165c2.139-8.607,4.165-17.232,6.077-25.879c1.938-8.651,3.769-17.286,5.587-25.992
					c1.708-8.729,3.926-28.477,4.897-37.289c0.99-8.812,1.744-17.642,2.396-26.483c-1.337,8.764-2.551,17.542-3.773,26.309
					c-1.252,8.762-3.541,28.462-5.271,37.116C154.172,299.477,152.403,308.189,150.745,316.887z M200.302,254.069
					c0.072,3.844,0.195,7.712,0.029,11.508c-0.182,3.812-0.52,7.668-0.818,11.507l-0.895,11.535
					c-0.603,7.692-1.12,15.393-1.544,23.105c1.114-7.643,2.096-15.302,2.931-22.976c0.84-7.682,1.638-15.334,2.109-23.095
					c0.187-7.806-0.266-15.491-0.748-23.209c-0.505-7.708-1.223-15.402-2.206-23.064l0.82,23.133
					C200.088,246.366,200.231,250.218,200.302,254.069z"/>
			</g>
		</g>
		<g id="Top_00000152952259128393367480000017416535370304211626_">
			<path style="fill:#263238;" d="M158.324,83.174c-5.481,2.929-6.036,7.48-6.312,18.566c-0.502,20.112-6.659,43.009-6.659,43.009
				l45.993,0.53l2.482-46.035c0,0,4.07-4.929,3.893-10.236c-0.177-5.307-3.083-12.352-12.834-14.906
				C176.763,71.975,160.951,72.805,158.324,83.174z"/>
			<g>
				<path style="fill:#FFA8A7;" d="M245.143,140.446c-2.537-11.212-8.922-26.722-11.903-34.098c-0.839-2.075-1.874-6.627-2.259-8.38
					c-0.821-3.784-1.542-5.971-3.173-8.818c-1.071-1.861-2.038-3.656-4.918-6.185c-0.846-0.744-1.966-0.71-2.362-0.309
					c-0.904-0.855-1.464-1.348-2.446-1.641c-0.768-0.242-1.584-0.112-2.392-0.14c-1.279-0.051-2.024-0.82-2.84-1.711
					c-0.401-0.418-0.793-0.903-1.335-1.104c-0.882-0.329-1.306,0.274-1.493,1.007c-0.28,1.06-0.11,2.211,0.282,3.246
					c0.63,1.691,1.712,2.915,2.575,4.478c1.306,2.372,3.26,5.37,3.15,8.131c-0.022,0.561-0.233,1.721-0.933,0.962
					c-0.918-0.99-1.771-2.059-2.842-2.878c-1.072-0.818-2.452-1.372-3.769-1.109c-0.402,0.076-0.802,0.241-1.053,0.572
					c-0.338,0.467-0.118,0.788,0.159,1.152c0.299,0.375,0.522,0.808,0.766,1.228c0.49,0.864,0.99,1.717,1.502,2.581
					c2.977,4.994,4.311,7.085,8.6,10.482c0.673,0.535,2.821,1.783,4.359,6.176c1.538,4.393,2.669,18.314,2.669,18.314
					s-1.956-0.456-14.938-3.571c-10.571-2.536-13.137-2.625-20.263-3.475l9.203,21.903c0,0,15.228,2.778,30.261,5.151
					C241.228,154.223,248.191,153.918,245.143,140.446z"/>
				<path style="fill:#F0F0F0;" d="M224.57,124.383l-0.613-4.371c0,0,3.071,1.414,7.627,0.495c4.556-0.919,6.403-2.967,6.403-2.967
					l1.448,3.649c0,0-3.105,2.176-7.224,3.031C228.092,125.076,224.57,124.383,224.57,124.383z"/>
				<path style="fill:#4682B4;" d="M190.559,125.159c6.263,0.31,12.274,1.409,21.193,3.484c7.947,1.849,13.482,3.337,13.482,3.337
					l-1.057-9.317c0,0,2.679,1.72,8.161,0.742c5.482-0.978,6.887-3.264,6.887-3.264s5.643,15.272,6.907,22.631
					c1.12,6.519-0.57,12.228-9.47,11.437c-10.932-0.972-39.017-5.934-39.017-5.934L190.559,125.159z"/>
				<path style="opacity:0.15;" d="M225.234,131.981c0.438,6.073,1.661,10.642,3.874,13.314c-3.802-2.089-6.174-8.043-6.347-13.96
					L225.234,131.981z"/>
			</g>
			<g id="Telescope">
				<path style="fill:#FAFAFA;" d="M201.655,92.046c-0.684,0.223-1.244,0.764-1.52,1.574c-0.551,1.619,0.245,3.689,1.779,4.624
					c0.751,0.458,1.539,0.557,2.212,0.349c0.227-0.07,2.382-0.823,2.593-0.891c0.685-0.222,1.247-0.764,1.523-1.575
					c0.551-1.619-0.245-3.689-1.779-4.624c-0.757-0.461-1.551-0.558-2.228-0.344C204.014,91.228,201.867,91.977,201.655,92.046z"/>
				<path style="fill:#4682B4;" d="M201.655,92.046c-0.684,0.223-1.244,0.764-1.52,1.574c-0.551,1.619,0.245,3.689,1.779,4.624
					c0.751,0.458,1.539,0.557,2.212,0.349c0.227-0.07,2.382-0.823,2.593-0.891c0.685-0.222,1.247-0.764,1.523-1.575
					c0.551-1.619-0.245-3.689-1.779-4.624c-0.757-0.461-1.551-0.558-2.228-0.344C204.014,91.228,201.867,91.977,201.655,92.046z"/>
				<path style="opacity:0.25;fill:#FFFFFF;" d="M201.655,92.046c-0.684,0.223-1.244,0.764-1.52,1.574
					c-0.551,1.619,0.245,3.689,1.779,4.624c0.751,0.458,1.539,0.557,2.212,0.349c0.227-0.07,2.382-0.823,2.593-0.891
					c0.685-0.222,1.247-0.764,1.523-1.575c0.551-1.619-0.245-3.689-1.779-4.624c-0.757-0.461-1.551-0.558-2.228-0.344
					C204.014,91.228,201.867,91.977,201.655,92.046z"/>
				<path style="fill:#4682B4;" d="M204.466,97.365c1.534,0.935,3.224,0.38,3.775-1.239c0.551-1.619-0.245-3.689-1.779-4.624
					c-1.534-0.935-3.224-0.38-3.775,1.239C202.137,94.36,202.933,96.43,204.466,97.365z"/>
				<path style="fill:#263238;" d="M204.857,91.458c-0.587,0.191-1.068,0.656-1.305,1.351c-0.473,1.39,0.21,3.167,1.527,3.97
					c0.645,0.393,1.321,0.478,1.899,0.299c0.195-0.06,21.559-6.075,21.74-6.134c0.588-0.191,0.835-1.658,1.073-2.354
					c0.473-1.39-0.21-3.167-1.527-3.969c-0.65-0.396-1.798-1.408-2.379-1.224C225.695,83.457,205.039,91.398,204.857,91.458z"/>
				<g>
					<g id="Lens_1_">
						<g>
							<g>
								<path style="fill:#E0E0E0;" d="M220.2,82.885c-1.206,0.393-2.195,1.348-2.682,2.776c-0.973,2.856,0.432,6.508,3.137,8.158
									c1.325,0.808,2.714,0.982,3.902,0.615c0.4-0.123,42.115-11.761,42.487-11.882c1.208-0.392,1.717-3.408,2.204-4.838
									c0.972-2.856-0.432-6.508-3.138-8.157c-1.336-0.814-3.694-2.892-4.888-2.514C260.833,67.166,220.573,82.763,220.2,82.885z"
									/>
								<path style="fill:#E0E0E0;" d="M261.988,81.667c3.63,2.213,7.631,0.9,8.936-2.932c1.305-3.832-0.58-8.733-4.21-10.946
									c-3.63-2.213-7.631-0.9-8.936,2.932S258.358,79.454,261.988,81.667z"/>
							</g>
						</g>
					</g>
					<g>
						<g id="XMLID_00000020392513435585021760000002859314885895082638_">
							<path style="fill:#263238;" d="M261.472,82.318c1.316,0.8,2.669,1.178,3.949,1.168c0.027,0.003,0.046,0.001,0.069,0.001
								l0.115-0.005c0.037,0.002,0.073-0.003,0.11-0.001l0.037-0.005l2.063-0.056c-0.014-0.002-0.037-0.002-0.06-0.002
								c-0.032,0.001-0.06-0.002-0.092-0.002c-0.096-0.004-0.184-0.009-0.285-0.016c-0.193-0.015-0.4-0.039-0.597-0.07
								c-1.038-0.161-2.093-0.548-3.132-1.175c-0.513-0.316-1.003-0.679-1.452-1.078c-3.303-2.908-4.863-7.858-3.504-11.829
								c0.355-1.066,0.9-1.971,1.575-2.688c0.045-0.054,0.095-0.104,0.145-0.155c0.041-0.043,0.091-0.087,0.136-0.127
								c0.009-0.008,0.014-0.019,0.023-0.027l0.295-0.26c0.036-0.032,0.077-0.061,0.109-0.089l-1.715,1.229l-0.014,0.012
								c-0.155,0.109-0.309,0.231-0.455,0.359c-0.827,0.721-1.485,1.698-1.898,2.911c-1.297,3.813,0.307,8.601,3.616,11.223
								c0.143,0.113,0.291,0.223,0.435,0.33c0.023,0.014,0.037,0.029,0.056,0.04C261.158,82.116,261.311,82.221,261.472,82.318z"/>
							<g>
								<path style="fill:#4682B4;" d="M271.216,80.015c4.524,2.758,9.509,1.122,11.135-3.654c1.626-4.775-0.722-10.882-5.246-13.64
									c-4.524-2.758-9.509-1.122-11.135,3.653C264.344,71.151,266.693,77.258,271.216,80.015z"/>
								<path style="fill:#FAFAFA;" d="M263.471,82.561c0.831,0.508,1.689,0.87,2.535,1.084c0.483,0.123,1.759,0.246,1.911,0.25
									c0.16,0.003,0.775-0.031,0.921-0.051c0.156-0.021,0.307-0.044,0.453-0.07c0.256-0.047,0.508-0.111,0.746-0.184l0.009-0.001
									l0.014-0.005c0.014-0.005,0.023-0.006,0.032-0.014l0.055-0.014l0.114-0.039l0.064-0.022l7.426-2.441
									c-0.059,0.018-0.123,0.033-0.183,0.051c-0.009,0.001-0.014-0.001-0.018,0.003c-0.069,0.019-0.146,0.04-0.22,0.056
									c-0.165,0.035-0.32,0.063-0.485,0.091c-0.22,0.036-0.44,0.058-0.664,0.078c-1.586,0.102-3.301-0.32-4.95-1.328
									c-0.457-0.276-0.892-0.592-1.304-0.934c-3.658-3.041-5.41-8.41-3.945-12.708c0.52-1.526,1.382-2.731,2.464-3.574
									c0.114-0.086,0.223-0.169,0.337-0.242l0.014-0.012c0.109-0.076,0.218-0.145,0.332-0.21c0.118-0.07,0.232-0.136,0.355-0.196
									c0.1-0.054,0.196-0.104,0.297-0.145c0.082-0.045,0.164-0.076,0.256-0.108c0.082-0.038,0.169-0.073,0.26-0.106l-7.44,2.447
									l-0.004,0.004l-0.338,0.113c-1.928,0.69-3.506,2.272-4.297,4.585c-1.39,4.101,0.139,9.18,3.463,12.283
									c0.158,0.149,0.324,0.297,0.509,0.449C262.597,81.98,263.018,82.288,263.471,82.561z"/>
							</g>
							<path id="XMLID_603_" style="fill:#EBEBEB;" d="M284.205,60.777c4.281,2.61,6.502,8.386,4.962,12.904
								c-0.445,1.311-1.159,2.376-2.053,3.157c-0.641,0.56-1.376,0.975-2.168,1.239l-0.015,0.004
								c-0.003,0.003-0.003,0.003-0.003,0.003l-6.195,2.069l-0.152,0.053c-0.299,0.092-0.604,0.158-0.912,0.209
								c-1.672,0.271-3.531-0.097-5.312-1.183c-4.278-2.608-6.502-8.386-4.963-12.904c0.64-1.878,1.831-3.244,3.313-4.008
								c0.248-0.132,0.502-0.242,0.768-0.337l0.045-0.017l0.299-0.097l6.078-2.034l0.003,0.002
								C279.807,59.206,282.06,59.469,284.205,60.777z"/>
						</g>
						<g>
							<g>
								<path style="fill:#FAFAFA;" d="M275.626,59.891c-2.018,0.658-3.673,2.255-4.487,4.645c-1.627,4.779,0.723,10.89,5.25,13.65
									c2.217,1.352,4.542,1.643,6.53,1.029c0.67-0.206,4.949-1.709,5.571-1.911c2.021-0.656,3.68-2.255,4.495-4.648
									c1.627-4.779-0.723-10.89-5.25-13.65c-2.235-1.362-4.579-1.648-6.577-1.015C280.505,58.198,276.25,59.687,275.626,59.891z"
									/>
								<path style="fill:#4682B4;" d="M263.471,82.561c0.831,0.508,1.689,0.87,2.535,1.084c0.483,0.123,1.759,0.246,1.911,0.25
									c0.16,0.003,0.775-0.031,0.921-0.051c0.156-0.021,0.307-0.044,0.453-0.07c0.256-0.047,0.508-0.111,0.746-0.184l0.009-0.001
									l0.014-0.005c0.014-0.005,0.023-0.006,0.032-0.014l0.055-0.014l0.114-0.039l0.064-0.022l7.426-2.441
									c-0.059,0.018-0.123,0.033-0.183,0.051c-0.009,0.001-0.014-0.001-0.018,0.003c-0.069,0.019-0.146,0.04-0.22,0.056
									c-0.165,0.035-0.32,0.063-0.485,0.091c-0.22,0.036-0.44,0.058-0.664,0.078c-1.586,0.102-3.301-0.32-4.95-1.328
									c-0.457-0.276-0.892-0.592-1.304-0.934c-3.658-3.041-5.41-8.41-3.945-12.708c0.52-1.526,1.382-2.731,2.464-3.574
									c0.114-0.086,0.223-0.169,0.337-0.242l0.014-0.012c0.109-0.076,0.218-0.145,0.332-0.21c0.118-0.07,0.232-0.136,0.355-0.196
									c0.1-0.054,0.196-0.104,0.297-0.145c0.082-0.045,0.164-0.076,0.256-0.108c0.082-0.038,0.169-0.073,0.26-0.106l-7.44,2.447
									l-0.004,0.004l-0.338,0.113c-1.928,0.69-3.506,2.272-4.297,4.585c-1.39,4.101,0.139,9.18,3.463,12.283
									c0.158,0.149,0.324,0.297,0.509,0.449C262.597,81.98,263.018,82.288,263.471,82.561z"/>
								<path style="opacity:0.25;fill:#FFFFFF;" d="M263.471,82.561c0.831,0.508,1.689,0.87,2.535,1.084
									c0.483,0.123,1.759,0.246,1.911,0.25c0.16,0.003,0.775-0.031,0.921-0.051c0.156-0.021,0.307-0.044,0.453-0.07
									c0.256-0.047,0.508-0.111,0.746-0.184l0.009-0.001l0.014-0.005c0.014-0.005,0.023-0.006,0.032-0.014l0.055-0.014
									l0.114-0.039l0.064-0.022l7.426-2.441c-0.059,0.018-0.123,0.033-0.183,0.051c-0.009,0.001-0.014-0.001-0.018,0.003
									c-0.069,0.019-0.146,0.04-0.22,0.056c-0.165,0.035-0.32,0.063-0.485,0.091c-0.22,0.036-0.44,0.058-0.664,0.078
									c-1.586,0.102-3.301-0.32-4.95-1.328c-0.457-0.276-0.892-0.592-1.304-0.934c-3.658-3.041-5.41-8.41-3.945-12.708
									c0.52-1.526,1.382-2.731,2.464-3.574c0.114-0.086,0.223-0.169,0.337-0.242l0.014-0.012c0.109-0.076,0.218-0.145,0.332-0.21
									c0.118-0.07,0.232-0.136,0.355-0.196c0.1-0.054,0.196-0.104,0.297-0.145c0.082-0.045,0.164-0.076,0.256-0.108
									c0.082-0.038,0.169-0.073,0.26-0.106l-7.44,2.447l-0.004,0.004l-0.338,0.113c-1.928,0.69-3.506,2.272-4.297,4.585
									c-1.39,4.101,0.139,9.18,3.463,12.283c0.158,0.149,0.324,0.297,0.509,0.449C262.597,81.98,263.018,82.288,263.471,82.561z"
									/>
								<path id="XMLID_1403_" style="fill:#4682B4;" d="M284.205,60.777c4.281,2.61,6.502,8.386,4.962,12.904
									c-0.445,1.311-1.159,2.376-2.053,3.157c-0.641,0.56-1.376,0.975-2.168,1.239l-0.015,0.004
									c-0.003,0.003-0.003,0.003-0.003,0.003l-6.195,2.069l-0.152,0.053c-0.299,0.092-0.604,0.158-0.912,0.209
									c-1.672,0.271-3.531-0.097-5.312-1.183c-4.278-2.608-6.502-8.386-4.963-12.904c0.64-1.878,1.831-3.244,3.313-4.008
									c0.248-0.132,0.502-0.242,0.768-0.337l0.045-0.017l0.299-0.097l6.078-2.034l0.003,0.002
									C279.807,59.206,282.06,59.469,284.205,60.777z"/>
								<path id="XMLID_1404_" style="opacity:0.15;fill:#FFFFFF;" d="M284.205,60.777c4.281,2.61,6.502,8.386,4.962,12.904
									c-0.445,1.311-1.159,2.376-2.053,3.157c-0.641,0.56-1.376,0.975-2.168,1.239l-0.015,0.004
									c-0.003,0.003-0.003,0.003-0.003,0.003l-6.195,2.069l-0.152,0.053c-0.299,0.092-0.604,0.158-0.912,0.209
									c-1.672,0.271-3.531-0.097-5.312-1.183c-4.278-2.608-6.502-8.386-4.963-12.904c0.64-1.878,1.831-3.244,3.313-4.008
									c0.248-0.132,0.502-0.242,0.768-0.337l0.045-0.017l0.299-0.097l6.078-2.034l0.003,0.002
									C279.807,59.206,282.06,59.469,284.205,60.777z"/>
								<path style="fill:#4682B4;" d="M275.626,59.891c-2.018,0.658-3.673,2.255-4.487,4.645c-1.627,4.779,0.723,10.89,5.25,13.65
									c2.217,1.352,4.542,1.643,6.53,1.029c0.67-0.206,4.949-1.709,5.571-1.911c2.021-0.656,3.68-2.255,4.495-4.648
									c1.627-4.779-0.723-10.89-5.25-13.65c-2.235-1.362-4.579-1.648-6.577-1.015C280.505,58.198,276.25,59.687,275.626,59.891z"
									/>
								<path style="opacity:0.25;fill:#FFFFFF;" d="M275.626,59.891c-2.018,0.658-3.673,2.255-4.487,4.645
									c-1.627,4.779,0.723,10.89,5.25,13.65c2.217,1.352,4.542,1.643,6.53,1.029c0.67-0.206,4.949-1.709,5.571-1.911
									c2.021-0.656,3.68-2.255,4.495-4.648c1.627-4.779-0.723-10.89-5.25-13.65c-2.235-1.362-4.579-1.648-6.577-1.015
									C280.505,58.198,276.25,59.687,275.626,59.891z"/>
								<path style="fill:#4682B4;" d="M281.841,76.313c4.527,2.76,9.516,1.123,11.143-3.656s-0.723-10.89-5.25-13.65
									c-4.527-2.76-9.516-1.123-11.143,3.656S277.315,73.553,281.841,76.313z"/>
								<path style="opacity:0.2;" d="M289.64,75.382c-2.113,1.845-4.853,0.514-5.933-0.144c-4.214-2.569-6.495-8.499-4.98-12.948
									c0.374-1.099,0.952-2.011,1.67-2.639c2.113-1.846,4.853-0.514,5.933,0.144c4.214,2.569,6.495,8.499,4.98,12.947
									C290.936,73.841,290.358,74.754,289.64,75.382L289.64,75.382z"/>
								<path style="fill:#4682B4;" d="M283.696,60.669c-0.645-0.394-1.883-1.027-3.225-1.079c-0.025,0.021-0.05,0.04-0.075,0.061
									c-0.718,0.627-1.296,1.54-1.67,2.639c-1.514,4.449,0.766,10.378,4.98,12.948c0.645,0.393,1.883,1.026,3.225,1.079
									c0.025-0.021,0.05-0.04,0.074-0.061c0.718-0.628,1.296-1.54,1.67-2.639C290.191,69.168,287.911,63.238,283.696,60.669z"/>
								<path style="opacity:0.6;fill:#FFFFFF;" d="M283.696,60.669c-0.645-0.394-1.883-1.027-3.225-1.079
									c-0.025,0.021-0.05,0.04-0.075,0.061c-0.718,0.627-1.296,1.54-1.67,2.639c-1.514,4.449,0.766,10.378,4.98,12.948
									c0.645,0.393,1.883,1.026,3.225,1.079c0.025-0.021,0.05-0.04,0.074-0.061c0.718-0.628,1.296-1.54,1.67-2.639
									C290.191,69.168,287.911,63.238,283.696,60.669z"/>
								<path style="opacity:0.1;fill:#4682B4;" d="M278.67,62.471c-1.394,4.428,0.879,10.232,5.037,12.767
									c0.003,0.002,0.007,0.004,0.01,0.006c1.555-0.331,2.855-1.455,3.459-3.23c1.086-3.188-0.482-7.265-3.502-9.106
									C281.948,61.855,280.122,61.763,278.67,62.471z"/>
								<path style="opacity:0.2;fill:#4682B4;" d="M278.307,66.226c0.205,2.255,1.104,4.537,2.517,6.379
									c1.837,0.882,3.754,0.142,4.408-1.778c0.699-2.054-0.311-4.68-2.256-5.866C281.13,63.836,279.107,64.412,278.307,66.226z"/>
								<path style="opacity:0.6;fill:#FFFFFF;" d="M279.617,64.895c-0.416-2.437,1.115-4.262,2.088-4.219
									c0.973,0.043,7.307,3.864,6.305,11.39c0,0-0.174-4.783-3.053-7.911C282.229,61.19,279.772,62.53,279.617,64.895z"/>
							</g>
						</g>
						<path style="opacity:0.1;" d="M262.19,81.647c-0.001-0.001-0.001-0.001-0.002-0.002l7.722-2.565l0.013-0.012l0.962-0.922
							l3.784-1.255c0.153,0.139,0.324,0.29,0.514,0.445l5.511-1.831c0.366,0.295,0.745,0.564,1.147,0.806
							c0.143,0.086,0.286,0.173,0.429,0.245c1.223,0.67,2.47,1.025,3.668,1.087c0.789,0.038,1.545-0.045,2.263-0.246
							c-0.018,0.006-0.039,0.017-0.058,0.024c-1.203,0.411-4.632,1.612-5.225,1.795c-0.721,0.223-1.487,0.322-2.276,0.299
							l-0.443,0.148c-0.854,0.755-1.861,1.271-2.96,1.517c0.03-0.006,0.059-0.01,0.09-0.017c0.073-0.016,0.151-0.037,0.219-0.056
							c0.005-0.004,0.009-0.001,0.018-0.002c0.06-0.018,0.124-0.033,0.183-0.051l-7.426,2.441l-0.064,0.022l-0.114,0.039
							l-0.055,0.014c-0.009,0.008-0.018,0.009-0.032,0.014l-0.014,0.005l-0.009,0.001c-0.238,0.072-0.489,0.136-0.746,0.184
							c-0.146,0.026-0.298,0.05-0.453,0.07c-0.146,0.019-0.761,0.053-0.921,0.051c-0.151-0.004-1.427-0.127-1.91-0.249
							c-0.001,0-0.002-0.001-0.004-0.002c-0.634-0.16-1.274-0.404-1.905-0.729c-0.21-0.109-0.419-0.226-0.627-0.353
							C263.018,82.288,262.597,81.98,262.19,81.647z"/>
					</g>
				</g>
			</g>
			<path id="Chest_00000081621228714444793430000002229692961071078789_" style="fill:#FAFAFA;" d="M149.439,189.085
				c0.594-4.311,3.602-4.949,2.138-15.247c-0.725-5.098-3.282-18.288-3.282-18.288s8.769-6.764,5.953-26.483l9.435-3.795l5.14-1.816
				l14.375,0.6l7.381,2.023c2.532,2.176,7.166,5.606,10.894,10.872c5.38,7.598,6.346,15.962,0.848,22.212
				c-0.058,1.214,0.163,20.014,1.579,24.59c0.563,1.818,1.328,4.291,0.143,6.732C198.751,199.167,167.367,208.012,149.439,189.085z"
				/>
			<g>
				<g>
					<path style="fill:#4682B4;" d="M183.197,124.057l7.361,1.102c7.074,5.345,15.49,14.986,15.962,22.406
						c0.472,7.421-3.299,12.436-3.299,12.436s-0.105,15.085,1.622,23.052c1.726,7.966,3.634,29.293,3.634,29.293
						s0.153,1.334-5.76,2.994c-1.813-10.222-6.299-47.721-6.05-56.723C196.916,149.615,197.083,135.4,183.197,124.057z"/>
					<path style="opacity:0.3;" d="M183.197,124.057l7.361,1.102c7.074,5.345,15.49,14.986,15.962,22.406
						c0.472,7.421-3.299,12.436-3.299,12.436s-0.105,15.085,1.622,23.052c1.726,7.966,3.634,29.293,3.634,29.293
						s0.153,1.334-5.76,2.994c-1.813-10.222-6.299-47.721-6.05-56.723C196.916,149.615,197.083,135.4,183.197,124.057z"/>
					<path style="opacity:0.2;" d="M197.775,162.811c0.583-2.39,1.225-4.765,1.875-7.134c0.66-2.367,1.274-4.746,1.863-7.121
						c0.28-1.187,0.554-2.389,0.674-3.57c0.18-1.126-0.622-2.066-1.416-2.951c-1.651-1.737-3.637-3.217-5.654-4.562l-0.187-0.125
						l0.041-0.223c0.229-1.258,0.187-2.615-0.017-3.904c-0.216-1.293-0.665-2.563-1.356-3.675c-0.729-1.091-1.696-2.033-2.767-2.832
						c-1.07-0.804-2.246-1.475-3.473-2.035c1.272,0.452,2.491,1.067,3.625,1.818c1.141,0.739,2.18,1.668,2.987,2.798
						c0.777,1.156,1.288,2.46,1.566,3.817c0.268,1.363,0.309,2.746,0.08,4.149l-0.146-0.347c2.076,1.36,4.101,2.792,5.837,4.626
						c0.427,0.463,0.828,0.963,1.155,1.536c0.094,0.132,0.146,0.302,0.215,0.456c0.066,0.157,0.138,0.309,0.156,0.497
						c0.09,0.371,0.054,0.691,0.036,1.018c-0.144,1.265-0.436,2.462-0.733,3.662c-0.6,2.395-1.355,4.738-2.081,7.087
						C199.32,158.143,198.536,160.472,197.775,162.811z"/>
				</g>
				<g>
					<path style="fill:#4682B4;" d="M163.682,125.272c0,0,3.094,3.983,7.194,13.352c4.1,9.369,8.054,17.886,7.984,26.564
						c-0.071,8.678-2.907,53.552-2.907,53.552s-12.443,1.875-23.713-2.661l0.92-17.381l-4.266,16.563c0,0-5.392-1.934-7.385-3.732
						c2.935-18.071,9.513-26.647,9.84-33.317c0.225-4.581-3.666-17.281-4.41-28.728c-0.648-9.976,1.369-20.051,1.369-20.051
						L163.682,125.272z"/>
					<path style="opacity:0.3;" d="M163.682,125.272c0,0,3.094,3.983,7.194,13.352c4.1,9.369,8.054,17.886,7.984,26.564
						c-0.071,8.678-2.907,53.552-2.907,53.552s-12.443,1.875-23.713-2.661l0.92-17.381l-4.266,16.563c0,0-5.392-1.934-7.385-3.732
						c2.935-18.071,9.513-26.647,9.84-33.317c0.225-4.581-3.666-17.281-4.41-28.728c-0.648-9.976,1.369-20.051,1.369-20.051
						L163.682,125.272z"/>
					<path style="opacity:0.2;" d="M177.218,167.774c-0.695-2.23-2.025-4.159-3.419-5.996c-1.394-1.846-2.924-3.589-4.493-5.294
						c-0.773-0.863-1.564-1.711-2.359-2.557l-1.198-1.271c-0.201-0.223-0.396-0.418-0.604-0.672c-0.052-0.07-0.1-0.1-0.156-0.203
						c-0.055-0.105-0.105-0.217-0.147-0.329c-0.064-0.213-0.051-0.392-0.064-0.585c0.15-1.351,0.704-2.384,1.213-3.461
						c0.551-1.049,1.144-2.057,1.786-3.052l0.058,0.577l-3.555-3.594l-1.769-1.81l-0.439-0.457l-0.219-0.229
						c-0.07-0.09-0.13-0.095-0.301-0.365c-0.133-0.349-0.087-0.549-0.092-0.792c0.013-0.228,0.038-0.447,0.069-0.663
						c0.28-1.712,0.723-3.345,1.213-4.973c0.498-1.623,1.008-3.24,1.589-4.833c-0.402,1.647-0.822,3.287-1.19,4.939
						c-0.354,1.649-0.766,3.303-0.945,4.949c-0.041,0.379-0.059,0.885,0.015,1.063c-0.06-0.088,0.042,0.047,0.12,0.108l0.23,0.219
						l0.461,0.439l1.831,1.775l3.644,3.575l0.259,0.255l-0.201,0.323c-0.604,0.968-1.177,1.976-1.693,2.994
						c-0.495,1.003-1.04,2.088-1.151,3.064c0.012,0.093,0.001,0.216,0.022,0.277c0.015,0.022,0.022,0.044,0.024,0.072
						c0.002,0.03,0.073,0.096,0.106,0.142c0.157,0.2,0.369,0.422,0.554,0.633l1.176,1.286c0.785,0.86,1.569,1.725,2.334,2.606
						c1.511,1.78,2.969,3.611,4.297,5.539c0.665,0.963,1.264,1.974,1.8,3.015C176.561,165.527,177.001,166.628,177.218,167.774z"/>
				</g>
			</g>
			<g id="Head_00000075151472134493225800000008740161708575588754_">
				<g id="Head_13_">
					<g id="Head_00000172409188001122669890000009313131428264099225_">
						<g id="XMLID_486_">
							<g id="XMLID_00000165216304063947656020000009561572835651231399_">
								<path id="XMLID_00000062896186162822377290000001541105019061424033_" style="fill:#FFA8A7;" d="M163.364,112.687
									c-2.033,0.623-4.119-0.182-5.535-1.426c-3.143-2.762-3.757-5.865-2.688-8.098c0.878-1.835,3.395-3.228,5.377-2.277
									c2.12,1.017,2.296,2.022,3.202,3.339c0.93,1.352,2.701,0.007,1.424-5.552c3.64-2.241,2.299-8.612,4.08-11.473
									c2.788-4.478,8.264-4.013,10.112-3.242c1.407-1.433,4.449-2.402,7.242-1.288c2.739,1.093,4.785,3.809,6.822,13.711
									c2.076,10.093,1.079,17.087-1.032,19.514c-1.452,1.67-5.12,3.216-8.729,3.411l-0.424,5.551c0,0,11.922,9.357-1.399,9.861
									c-9.982,0.377-17.231-9.764-17.231-9.764l0.785-14.116C165.37,110.838,165.295,112.094,163.364,112.687z"/>
							</g>
						</g>
					</g>
					<g id="XMLID_00000127722941423492003980000003265564273784881046_">
						<path id="XMLID_4531_" style="fill:#263238;" d="M176.345,94.109l-3.595,1.905c-0.505-1.036-0.109-2.302,0.884-2.828
							C174.627,92.66,175.84,93.073,176.345,94.109z"/>
						<path id="XMLID_4522_" style="fill:#263238;" d="M190.675,91.195l-4.051-0.616c0.126-1.138,1.135-1.923,2.253-1.752
							C189.997,88.997,190.802,90.057,190.675,91.195z"/>
						<path id="XMLID_4520_" style="fill:#B16668;" d="M178.127,107.732l5.759,0.868c-0.18,1.619-1.615,2.737-3.206,2.497
							C179.09,110.858,177.947,109.352,178.127,107.732z"/>
						<path style="fill:#F28F8F;" d="M181.787,111.043c-0.355-1.321-1.572-2.275-2.992-2.227c-0.196,0.007-0.387,0.035-0.571,0.077
							c0.316,1.125,1.259,2.024,2.457,2.205C181.064,111.156,181.437,111.131,181.787,111.043z"/>
						<path style="fill:#263238;" d="M190.413,95.623c0.429,0.812,0.121,1.816-0.687,2.243c-0.809,0.427-1.812,0.115-2.241-0.697
							c-0.429-0.812-0.121-1.816,0.687-2.243C188.98,94.499,189.983,94.811,190.413,95.623z"/>
						<path style="fill:#263238;" d="M178.684,98.529c0.128,0.335-0.961-0.322-2.09-0.163c-1.44,0.204-2.289,1.611-2.148,0.703
							c0.126-0.809,0.625-1.587,1.988-1.783C177.475,97.138,178.321,97.575,178.684,98.529z"/>
						<path id="XMLID_4515_" style="fill:#F28F8F;" d="M182.03,94.361l2.05,10.672l5.7-2.388
							C187.852,98.596,184.512,96.111,182.03,94.361z"/>
					</g>
				</g>
				<path style="fill:#F28F8F;" d="M183.639,119.306c-5.189,0.388-11.553-0.874-13.785-3.999c1.435,3.478,5.286,4.931,8.281,5.421
					c3.642,0.596,5.362,0.434,5.362,0.434L183.639,119.306z"/>
			</g>
			<g id="Arm_00000021802031193813396410000008736075800644065183_">
				<g>
					<path style="fill:#F28F8F;" d="M140.249,215.741c-1.184-1.238-2.697-2.322-3.214-4.026c-0.266-0.878-0.203-1.899,0.36-2.623
						c0.117-0.151,0.259-0.296,0.302-0.482c0.036-0.155-0.001-0.316-0.034-0.472c-0.136-0.647-0.184-1.346,0.086-1.95
						c0.229-0.512,0.685-0.916,1.221-1.082c-0.329-0.943-0.342-1.993-0.037-2.945c0.36-1.124,1.495-2.041,2.279-0.806
						c0.382,0.603,0.667,1.27,0.915,1.937c0.621,1.667,1.01,3.431,1.226,5.194c0.226,1.847,0.779,7.071-2.08,7.379
						C141.049,215.891,140.416,215.916,140.249,215.741z"/>
					<path style="fill:#FFA8A7;" d="M150.993,130.486c-10.987,2.318-12.022,5.8-18.398,14.984
						c-6.293,9.064-14.357,21.717-16.314,26.161c-2.423,5.502-2.916,7.605,3.041,13.288c3.069,2.928,7.34,6.405,11.691,10.34
						c3.435,3.106,7.56,6.387,10.889,9.606c0.883,0.853,1.346,1.706,1.08,2.988c-0.155,0.747-0.464,1.463-0.532,2.223
						c-0.088,0.978,0.229,1.945,0.296,2.924c0.067,0.98-0.22,2.113-1.102,2.546c-0.426,0.21-0.921,0.218-1.396,0.194
						c0.851,0.575,1.739,1.121,2.724,1.411c0.985,0.29,2.087,0.303,3.003-0.163c0.888-0.452,1.546-1.318,2.494-1.623
						c0.512-0.165,1.066-0.15,1.583-0.299c0.531-0.153,1.01-0.48,1.344-0.92c0.531-0.698,0.735-1.688,1.496-2.124
						c0.363-0.208,0.798-0.25,1.183-0.414c0.787-0.336,1.281-1.162,1.438-2.003c0.157-0.842,0.029-1.708-0.115-2.552
						c-0.389-2.268-0.902-4.514-1.534-6.726c-0.219-0.764-0.671-1.418-1.134-2.054c-0.533-0.733-1.042-1.49-1.616-2.19
						c-3.893-4.749-16.245-20.599-16.245-20.599l13.639-17.879C148.507,157.604,158.47,146.061,150.993,130.486z"/>
					<path style="fill:#F28F8F;" d="M134.869,175.483c-3.284,3.357-8.482,3.731-10.402,3.654c6.821,2.613,11.518-2.223,11.518-2.223
						L134.869,175.483z"/>
				</g>
				<path style="fill:#F0F0F0;" d="M127.918,192.568l3.095,2.691c0,0,4.217-0.334,7.574-4.357c3.438-4.121,3.17-7.13,3.17-7.13
					l-3.588-4.063L127.918,192.568z"/>
				<path style="fill:#4682B4;" d="M151.116,128.693c-7.888,1.727-9.355,2.776-14.995,10.673
					c-5.64,7.896-15.163,22.962-17.639,26.854c-2.476,3.892-6.172,10.62-4.034,13.992c2.139,3.372,13.866,13.262,13.866,13.262
					s3.969-0.189,7.843-4.177c4.024-4.142,3.702-8.373,3.702-8.373l-4.349-5.455c0,0,12.168-15.678,14.37-18.579
					C152.083,153.989,156.948,144.214,151.116,128.693z"/>
				<path style="opacity:0.15;" d="M135.511,175.469c-1.58-1.778-5.434-4.669-8.259-5.161c2.954-0.515,7.366,1.6,9.444,3.545
					L135.511,175.469z"/>
			</g>
		</g>
	</g>
</g>
</svg>
