<svg xmlns="http://www.w3.org/2000/svg" xmlns:xlink="http://www.w3.org/1999/xlink" width="500" zoomAndPan="magnify" viewBox="0 0 375 187.499995" height="250" preserveAspectRatio="xMidYMid meet" version="1.0"><defs><filter x="0%" y="0%" width="100%" height="100%" id="fe02ae9b86"><feColorMatrix values="0 0 0 0 1 0 0 0 0 1 0 0 0 0 1 0 0 0 1 0" color-interpolation-filters="sRGB"/></filter><g/><clipPath id="622f8a8954"><path d="M 109.15625 17.804688 L 183.957031 17.804688 L 183.957031 92.605469 L 109.15625 92.605469 Z M 109.15625 17.804688 " clip-rule="nonzero"/></clipPath><clipPath id="94f8025d4a"><path d="M 189.332031 17.804688 L 264.132812 17.804688 L 264.132812 92.605469 L 189.332031 92.605469 Z M 189.332031 17.804688 " clip-rule="nonzero"/></clipPath><clipPath id="e0e31a5404"><path d="M 109.15625 98.386719 L 183.957031 98.386719 L 183.957031 173.1875 L 109.15625 173.1875 Z M 109.15625 98.386719 " clip-rule="nonzero"/></clipPath><clipPath id="b33b2843c1"><path d="M 189.332031 98.386719 L 264.132812 98.386719 L 264.132812 173.1875 L 189.332031 173.1875 Z M 189.332031 98.386719 " clip-rule="nonzero"/></clipPath><mask id="6b977242e7"><g filter="url(#fe02ae9b86)"><rect x="-37.5" width="450" fill="#000000" y="-18.749999" height="224.999994" fill-opacity="0.5098"/></g></mask><clipPath id="1d85b7e8fa"><path d="M 0.988281 0.636719 L 56.339844 0.636719 L 56.339844 55.992188 L 0.988281 55.992188 Z M 0.988281 0.636719 " clip-rule="nonzero"/></clipPath><clipPath id="313b3f7f3c"><rect x="0" width="57" y="0" height="57"/></clipPath><clipPath id="bddccc78c7"><path d="M 112 21 L 162 21 L 162 87 L 112 87 Z M 112 21 " clip-rule="nonzero"/></clipPath><clipPath id="52209e5b44"><path d="M 101.339844 71.335938 L 131.492188 10.308594 L 161.667969 25.21875 L 131.515625 86.246094 Z M 101.339844 71.335938 " clip-rule="nonzero"/></clipPath><clipPath id="62a425ab5e"><path d="M 101.339844 71.335938 L 131.492188 10.308594 L 161.667969 25.21875 L 131.515625 86.246094 Z M 101.339844 71.335938 " clip-rule="nonzero"/></clipPath><mask id="a1b4f9954b"><g filter="url(#fe02ae9b86)"><rect x="-37.5" width="450" fill="#000000" y="-18.749999" height="224.999994" fill-opacity="0.5098"/></g></mask><clipPath id="05e903d500"><path d="M 1.164062 0.636719 L 56.519531 0.636719 L 56.519531 55.992188 L 1.164062 55.992188 Z M 1.164062 0.636719 " clip-rule="nonzero"/></clipPath><clipPath id="b569d4de9c"><rect x="0" width="57" y="0" height="57"/></clipPath><clipPath id="870fae759f"><path d="M 202 21 L 260 21 L 260 79 L 202 79 Z M 202 21 " clip-rule="nonzero"/></clipPath><clipPath id="3f3fda98a2"><path d="M 249.84375 78.519531 L 202.238281 30.917969 L 226.039062 7.117188 L 273.644531 54.71875 Z M 249.84375 78.519531 " clip-rule="nonzero"/></clipPath><clipPath id="a1564e618f"><path d="M 226.03125 7.089844 L 273.636719 54.695312 L 249.835938 78.496094 L 202.230469 30.890625 Z M 226.03125 7.089844 " clip-rule="nonzero"/></clipPath><mask id="3a675dead6"><g filter="url(#fe02ae9b86)"><rect x="-37.5" width="450" fill="#000000" y="-18.749999" height="224.999994" fill-opacity="0.5098"/></g></mask><clipPath id="befae44e67"><path d="M 0.503906 0.613281 L 55.855469 0.613281 L 55.855469 55.964844 L 0.503906 55.964844 Z M 0.503906 0.613281 " clip-rule="nonzero"/></clipPath><clipPath id="e04530bbaf"><rect x="0" width="56" y="0" height="57"/></clipPath><clipPath id="526d891ee7"><path d="M 115 110 L 171 110 L 171 167 L 115 167 Z M 115 110 " clip-rule="nonzero"/></clipPath><clipPath id="d874527d75"><path d="M 147.601562 179.910156 L 101.585938 133.894531 L 124.855469 110.621094 L 170.871094 156.640625 Z M 147.601562 179.910156 " clip-rule="nonzero"/></clipPath><clipPath id="fe360d3549"><path d="M 147.601562 179.910156 L 101.585938 133.894531 L 124.855469 110.621094 L 170.871094 156.640625 Z M 147.601562 179.910156 " clip-rule="nonzero"/></clipPath><mask id="9b0387eb8c"><g filter="url(#fe02ae9b86)"><rect x="-37.5" width="450" fill="#000000" y="-18.749999" height="224.999994" fill-opacity="0.5098"/></g></mask><clipPath id="c2346a4a5a"><path d="M 0.523438 0.960938 L 55.875 0.960938 L 55.875 56.3125 L 0.523438 56.3125 Z M 0.523438 0.960938 " clip-rule="nonzero"/></clipPath><clipPath id="6b9faccc88"><rect x="0" width="57" y="0" height="57"/></clipPath><clipPath id="aa31d88021"><path d="M 210 104 L 260 104 L 260 169 L 210 169 Z M 210 104 " clip-rule="nonzero"/></clipPath><clipPath id="77a4b1f65e"><path d="M 210.691406 164.90625 L 240.84375 103.878906 L 271.023438 118.792969 L 240.871094 179.816406 Z M 210.691406 164.90625 " clip-rule="nonzero"/></clipPath><clipPath id="07cf9bf3e8"><path d="M 271.050781 119.183594 L 240.898438 180.207031 L 210.71875 165.296875 L 240.875 104.273438 Z M 271.050781 119.183594 " clip-rule="nonzero"/></clipPath></defs><g clip-path="url(#622f8a8954)"><path fill="#ffd700" d="M 146.554688 17.804688 C 125.898438 17.804688 109.15625 34.550781 109.15625 55.207031 C 109.15625 75.859375 125.898438 92.605469 146.554688 92.605469 L 183.953125 92.605469 L 183.953125 55.207031 C 183.953125 34.550781 167.207031 17.804688 146.554688 17.804688 Z M 146.554688 17.804688 " fill-opacity="1" fill-rule="nonzero"/></g><g clip-path="url(#94f8025d4a)"><path fill="#4682b4" d="M 264.132812 55.207031 C 264.132812 34.550781 247.390625 17.808594 226.734375 17.808594 C 206.078125 17.808594 189.332031 34.550781 189.332031 55.207031 L 189.332031 92.605469 L 226.734375 92.605469 C 247.390625 92.605469 264.132812 75.859375 264.132812 55.207031 Z M 264.132812 55.207031 " fill-opacity="1" fill-rule="nonzero"/></g><g clip-path="url(#e0e31a5404)"><path fill="#4682b4" d="M 109.15625 135.789062 C 109.15625 156.445312 125.898438 173.1875 146.554688 173.1875 C 167.210938 173.1875 183.957031 156.445312 183.957031 135.789062 L 183.957031 98.386719 L 146.554688 98.386719 C 125.898438 98.386719 109.15625 115.132812 109.15625 135.789062 Z M 109.15625 135.789062 " fill-opacity="1" fill-rule="nonzero"/></g><g clip-path="url(#b33b2843c1)"><path fill="#ffd700" d="M 226.734375 173.1875 C 247.390625 173.1875 264.132812 156.441406 264.132812 135.789062 C 264.132812 115.132812 247.390625 98.386719 226.734375 98.386719 L 189.335938 98.386719 L 189.335938 135.789062 C 189.335938 156.441406 206.082031 173.1875 226.734375 173.1875 Z M 226.734375 173.1875 " fill-opacity="1" fill-rule="nonzero"/></g><g mask="url(#6b977242e7)"><g transform="matrix(1, 0, 0, 1, 118, 27)"><g clip-path="url(#313b3f7f3c)"><g clip-path="url(#1d85b7e8fa)"><path fill="#fafbfe" d="M 56.339844 28.316406 C 56.339844 29.222656 56.292969 30.125 56.207031 31.027344 C 56.117188 31.929688 55.984375 32.824219 55.808594 33.714844 C 55.628906 34.601562 55.410156 35.480469 55.148438 36.347656 C 54.882812 37.214844 54.578125 38.070312 54.234375 38.90625 C 53.886719 39.742188 53.5 40.5625 53.070312 41.359375 C 52.644531 42.160156 52.179688 42.9375 51.675781 43.691406 C 51.171875 44.445312 50.632812 45.171875 50.058594 45.871094 C 49.480469 46.574219 48.875 47.242188 48.234375 47.882812 C 47.59375 48.527344 46.921875 49.132812 46.222656 49.707031 C 45.519531 50.285156 44.792969 50.824219 44.039062 51.328125 C 43.285156 51.832031 42.507812 52.296875 41.710938 52.722656 C 40.910156 53.148438 40.089844 53.539062 39.253906 53.882812 C 38.417969 54.230469 37.566406 54.535156 36.695312 54.800781 C 35.828125 55.0625 34.953125 55.28125 34.0625 55.460938 C 33.171875 55.636719 32.277344 55.769531 31.375 55.859375 C 30.472656 55.945312 29.570312 55.992188 28.664062 55.992188 C 27.757812 55.992188 26.851562 55.945312 25.949219 55.859375 C 25.046875 55.769531 24.152344 55.636719 23.265625 55.460938 C 22.375 55.28125 21.496094 55.0625 20.628906 54.800781 C 19.761719 54.535156 18.910156 54.230469 18.070312 53.882812 C 17.234375 53.539062 16.417969 53.148438 15.617188 52.722656 C 14.816406 52.296875 14.039062 51.832031 13.285156 51.328125 C 12.535156 50.824219 11.804688 50.285156 11.105469 49.707031 C 10.40625 49.132812 9.734375 48.527344 9.09375 47.882812 C 8.453125 47.242188 7.84375 46.574219 7.269531 45.871094 C 6.695312 45.171875 6.15625 44.445312 5.652344 43.691406 C 5.148438 42.9375 4.683594 42.160156 4.253906 41.359375 C 3.828125 40.5625 3.441406 39.742188 3.09375 38.90625 C 2.746094 38.070312 2.441406 37.214844 2.179688 36.347656 C 1.914062 35.480469 1.695312 34.601562 1.519531 33.714844 C 1.34375 32.824219 1.210938 31.929688 1.121094 31.027344 C 1.03125 30.125 0.988281 29.222656 0.988281 28.316406 C 0.988281 27.410156 1.03125 26.503906 1.121094 25.601562 C 1.210938 24.699219 1.34375 23.804688 1.519531 22.914062 C 1.695312 22.027344 1.914062 21.148438 2.179688 20.28125 C 2.441406 19.414062 2.746094 18.5625 3.09375 17.722656 C 3.441406 16.886719 3.828125 16.066406 4.253906 15.269531 C 4.683594 14.46875 5.148438 13.691406 5.652344 12.9375 C 6.15625 12.183594 6.695312 11.457031 7.269531 10.757812 C 7.84375 10.054688 8.453125 9.386719 9.09375 8.746094 C 9.734375 8.105469 10.40625 7.496094 11.105469 6.921875 C 11.804688 6.34375 12.535156 5.804688 13.285156 5.300781 C 14.039062 4.800781 14.816406 4.332031 15.617188 3.90625 C 16.417969 3.480469 17.234375 3.09375 18.070312 2.746094 C 18.910156 2.398438 19.761719 2.09375 20.628906 1.832031 C 21.496094 1.566406 22.375 1.347656 23.265625 1.171875 C 24.152344 0.992188 25.046875 0.859375 25.949219 0.773438 C 26.851562 0.683594 27.757812 0.636719 28.664062 0.636719 C 29.570312 0.636719 30.472656 0.683594 31.375 0.773438 C 32.277344 0.859375 33.171875 0.992188 34.0625 1.171875 C 34.953125 1.347656 35.828125 1.566406 36.695312 1.832031 C 37.566406 2.09375 38.417969 2.398438 39.253906 2.746094 C 40.089844 3.09375 40.910156 3.480469 41.710938 3.90625 C 42.507812 4.332031 43.285156 4.800781 44.039062 5.300781 C 44.792969 5.804688 45.519531 6.34375 46.222656 6.921875 C 46.921875 7.496094 47.59375 8.105469 48.234375 8.746094 C 48.875 9.386719 49.480469 10.054688 50.058594 10.757812 C 50.632812 11.457031 51.171875 12.183594 51.675781 12.9375 C 52.179688 13.691406 52.644531 14.46875 53.070312 15.269531 C 53.5 16.066406 53.886719 16.886719 54.234375 17.722656 C 54.578125 18.5625 54.882812 19.414062 55.148438 20.28125 C 55.410156 21.148438 55.628906 22.027344 55.808594 22.914062 C 55.984375 23.804688 56.117188 24.699219 56.207031 25.601562 C 56.292969 26.503906 56.339844 27.410156 56.339844 28.316406 Z M 56.339844 28.316406 " fill-opacity="1" fill-rule="nonzero"/></g></g></g></g><g clip-path="url(#bddccc78c7)"><g clip-path="url(#52209e5b44)"><g clip-path="url(#62a425ab5e)"><path fill="#4682b4" d="M 161.667969 25.226562 L 160.046875 28.503906 C 145.195312 21.167969 127.078125 27.414062 119.660156 42.425781 C 112.242188 57.4375 118.289062 75.621094 133.140625 82.960938 L 131.519531 86.242188 C 114.878906 78.019531 108.101562 57.644531 116.414062 40.824219 C 124.726562 24 145.027344 17.003906 161.667969 25.226562 Z M 161.667969 25.226562 " fill-opacity="1" fill-rule="nonzero"/></g></g></g><g mask="url(#a1b4f9954b)"><g transform="matrix(1, 0, 0, 1, 198, 27)"><g clip-path="url(#b569d4de9c)"><g clip-path="url(#05e903d500)"><path fill="#fafbfe" d="M 56.519531 28.316406 C 56.519531 29.222656 56.472656 30.125 56.386719 31.027344 C 56.296875 31.929688 56.164062 32.824219 55.984375 33.714844 C 55.808594 34.601562 55.589844 35.480469 55.328125 36.347656 C 55.0625 37.214844 54.757812 38.070312 54.410156 38.90625 C 54.066406 39.742188 53.675781 40.5625 53.25 41.359375 C 52.824219 42.160156 52.355469 42.9375 51.855469 43.691406 C 51.351562 44.445312 50.8125 45.171875 50.234375 45.871094 C 49.660156 46.574219 49.054688 47.242188 48.410156 47.882812 C 47.769531 48.527344 47.101562 49.132812 46.398438 49.707031 C 45.699219 50.285156 44.972656 50.824219 44.21875 51.328125 C 43.464844 51.832031 42.6875 52.296875 41.886719 52.722656 C 41.089844 53.148438 40.269531 53.539062 39.433594 53.882812 C 38.59375 54.230469 37.742188 54.535156 36.875 54.800781 C 36.007812 55.0625 35.128906 55.28125 34.242188 55.460938 C 33.351562 55.636719 32.457031 55.769531 31.554688 55.859375 C 30.652344 55.945312 29.75 55.992188 28.84375 55.992188 C 27.933594 55.992188 27.03125 55.945312 26.128906 55.859375 C 25.226562 55.769531 24.332031 55.636719 23.441406 55.460938 C 22.554688 55.28125 21.675781 55.0625 20.808594 54.800781 C 19.941406 54.535156 19.089844 54.230469 18.25 53.882812 C 17.414062 53.539062 16.59375 53.148438 15.796875 52.722656 C 14.996094 52.296875 14.21875 51.832031 13.464844 51.328125 C 12.710938 50.824219 11.984375 50.285156 11.285156 49.707031 C 10.582031 49.132812 9.914062 48.527344 9.273438 47.882812 C 8.632812 47.242188 8.023438 46.574219 7.449219 45.871094 C 6.871094 45.171875 6.332031 44.445312 5.828125 43.691406 C 5.328125 42.9375 4.859375 42.160156 4.433594 41.359375 C 4.007812 40.5625 3.621094 39.742188 3.273438 38.90625 C 2.925781 38.070312 2.621094 37.214844 2.359375 36.347656 C 2.09375 35.480469 1.875 34.601562 1.699219 33.714844 C 1.519531 32.824219 1.386719 31.929688 1.300781 31.027344 C 1.210938 30.125 1.164062 29.222656 1.164062 28.316406 C 1.164062 27.410156 1.210938 26.503906 1.300781 25.601562 C 1.386719 24.699219 1.519531 23.804688 1.699219 22.914062 C 1.875 22.027344 2.09375 21.148438 2.359375 20.28125 C 2.621094 19.414062 2.925781 18.5625 3.273438 17.722656 C 3.621094 16.886719 4.007812 16.066406 4.433594 15.269531 C 4.859375 14.46875 5.328125 13.691406 5.828125 12.9375 C 6.332031 12.183594 6.871094 11.457031 7.449219 10.757812 C 8.023438 10.054688 8.632812 9.386719 9.273438 8.746094 C 9.914062 8.105469 10.582031 7.496094 11.285156 6.921875 C 11.984375 6.34375 12.710938 5.804688 13.464844 5.300781 C 14.21875 4.800781 14.996094 4.332031 15.796875 3.90625 C 16.59375 3.480469 17.414062 3.09375 18.25 2.746094 C 19.089844 2.398438 19.941406 2.09375 20.808594 1.832031 C 21.675781 1.566406 22.554688 1.347656 23.441406 1.171875 C 24.332031 0.992188 25.226562 0.859375 26.128906 0.773438 C 27.03125 0.683594 27.933594 0.636719 28.84375 0.636719 C 29.75 0.636719 30.652344 0.683594 31.554688 0.773438 C 32.457031 0.859375 33.351562 0.992188 34.242188 1.171875 C 35.128906 1.347656 36.007812 1.566406 36.875 1.832031 C 37.742188 2.09375 38.59375 2.398438 39.433594 2.746094 C 40.269531 3.09375 41.089844 3.480469 41.886719 3.90625 C 42.6875 4.332031 43.464844 4.800781 44.21875 5.300781 C 44.972656 5.804688 45.699219 6.34375 46.398438 6.921875 C 47.101562 7.496094 47.769531 8.105469 48.410156 8.746094 C 49.054688 9.386719 49.660156 10.054688 50.234375 10.757812 C 50.8125 11.457031 51.351562 12.183594 51.855469 12.9375 C 52.355469 13.691406 52.824219 14.46875 53.25 15.269531 C 53.675781 16.066406 54.066406 16.886719 54.410156 17.722656 C 54.757812 18.5625 55.0625 19.414062 55.328125 20.28125 C 55.589844 21.148438 55.808594 22.027344 55.984375 22.914062 C 56.164062 23.804688 56.296875 24.699219 56.386719 25.601562 C 56.472656 26.503906 56.519531 27.410156 56.519531 28.316406 Z M 56.519531 28.316406 " fill-opacity="1" fill-rule="nonzero"/></g></g></g></g><g clip-path="url(#870fae759f)"><g clip-path="url(#3f3fda98a2)"><g clip-path="url(#a1564e618f)"><path fill="#ffd700" d="M 249.835938 78.496094 L 247.273438 75.9375 C 258.988281 64.222656 258.988281 45.164062 247.277344 33.449219 C 235.5625 21.738281 216.503906 21.738281 204.789062 33.449219 L 202.230469 30.890625 C 215.355469 17.769531 236.710938 17.769531 249.832031 30.890625 C 262.957031 44.015625 262.957031 65.371094 249.835938 78.496094 Z M 249.835938 78.496094 " fill-opacity="1" fill-rule="nonzero"/></g></g></g><g mask="url(#3a675dead6)"><g transform="matrix(1, 0, 0, 1, 120, 105)"><g clip-path="url(#e04530bbaf)"><g clip-path="url(#befae44e67)"><path fill="#fafbfe" d="M 55.855469 28.289062 C 55.855469 29.195312 55.8125 30.097656 55.722656 31 C 55.632812 31.902344 55.5 32.796875 55.324219 33.6875 C 55.148438 34.574219 54.929688 35.453125 54.664062 36.320312 C 54.402344 37.1875 54.097656 38.042969 53.75 38.878906 C 53.402344 39.714844 53.015625 40.535156 52.589844 41.335938 C 52.160156 42.132812 51.695312 42.910156 51.191406 43.664062 C 50.6875 44.417969 50.148438 45.144531 49.574219 45.84375 C 49 46.546875 48.390625 47.214844 47.75 47.859375 C 47.109375 48.5 46.4375 49.105469 45.738281 49.679688 C 45.039062 50.257812 44.308594 50.796875 43.554688 51.300781 C 42.800781 51.804688 42.027344 52.269531 41.226562 52.695312 C 40.425781 53.125 39.609375 53.511719 38.773438 53.855469 C 37.933594 54.203125 37.082031 54.507812 36.214844 54.773438 C 35.347656 55.035156 34.46875 55.253906 33.578125 55.433594 C 32.691406 55.609375 31.796875 55.742188 30.894531 55.832031 C 29.992188 55.917969 29.085938 55.964844 28.179688 55.964844 C 27.273438 55.964844 26.371094 55.917969 25.46875 55.832031 C 24.566406 55.742188 23.671875 55.609375 22.78125 55.433594 C 21.890625 55.253906 21.015625 55.035156 20.144531 54.773438 C 19.277344 54.507812 18.425781 54.203125 17.589844 53.855469 C 16.75 53.511719 15.933594 53.125 15.132812 52.695312 C 14.335938 52.269531 13.558594 51.804688 12.804688 51.300781 C 12.050781 50.796875 11.324219 50.257812 10.621094 49.679688 C 9.921875 49.105469 9.25 48.5 8.609375 47.859375 C 7.96875 47.214844 7.363281 46.546875 6.785156 45.84375 C 6.210938 45.144531 5.671875 44.417969 5.167969 43.664062 C 4.664062 42.910156 4.199219 42.132812 3.773438 41.335938 C 3.34375 40.535156 2.957031 39.714844 2.609375 38.878906 C 2.265625 38.042969 1.960938 37.1875 1.695312 36.320312 C 1.433594 35.453125 1.210938 34.574219 1.035156 33.6875 C 0.859375 32.796875 0.726562 31.902344 0.636719 31 C 0.546875 30.097656 0.503906 29.195312 0.503906 28.289062 C 0.503906 27.382812 0.546875 26.476562 0.636719 25.574219 C 0.726562 24.671875 0.859375 23.777344 1.035156 22.886719 C 1.210938 22 1.433594 21.121094 1.695312 20.253906 C 1.960938 19.386719 2.265625 18.535156 2.609375 17.695312 C 2.957031 16.859375 3.34375 16.039062 3.773438 15.242188 C 4.199219 14.441406 4.664062 13.664062 5.167969 12.910156 C 5.671875 12.15625 6.210938 11.429688 6.785156 10.730469 C 7.363281 10.03125 7.96875 9.359375 8.609375 8.71875 C 9.25 8.078125 9.921875 7.46875 10.621094 6.894531 C 11.324219 6.320312 12.050781 5.78125 12.804688 5.277344 C 13.558594 4.773438 14.335938 4.308594 15.132812 3.878906 C 15.933594 3.453125 16.75 3.066406 17.589844 2.71875 C 18.425781 2.371094 19.277344 2.066406 20.144531 1.804688 C 21.015625 1.539062 21.890625 1.320312 22.78125 1.144531 C 23.671875 0.964844 24.566406 0.832031 25.46875 0.746094 C 26.371094 0.65625 27.273438 0.613281 28.179688 0.613281 C 29.085938 0.613281 29.992188 0.65625 30.894531 0.746094 C 31.796875 0.832031 32.691406 0.964844 33.578125 1.144531 C 34.46875 1.320312 35.347656 1.539062 36.214844 1.804688 C 37.082031 2.066406 37.933594 2.371094 38.773438 2.71875 C 39.609375 3.066406 40.425781 3.453125 41.226562 3.878906 C 42.027344 4.308594 42.804688 4.773438 43.554688 5.277344 C 44.308594 5.78125 45.039062 6.320312 45.738281 6.894531 C 46.4375 7.46875 47.109375 8.078125 47.75 8.71875 C 48.390625 9.359375 49 10.03125 49.574219 10.730469 C 50.148438 11.429688 50.6875 12.15625 51.191406 12.910156 C 51.695312 13.664062 52.160156 14.441406 52.589844 15.242188 C 53.015625 16.039062 53.402344 16.859375 53.75 17.695312 C 54.097656 18.535156 54.402344 19.386719 54.664062 20.253906 C 54.929688 21.121094 55.148438 22 55.324219 22.886719 C 55.5 23.777344 55.632812 24.671875 55.722656 25.574219 C 55.8125 26.476562 55.855469 27.382812 55.855469 28.289062 Z M 55.855469 28.289062 " fill-opacity="1" fill-rule="nonzero"/></g></g></g></g><g clip-path="url(#526d891ee7)"><g clip-path="url(#d874527d75)"><g clip-path="url(#fe360d3549)"><path fill="#ffd700" d="M 124.855469 110.625 L 127.332031 113.097656 C 115.878906 124.550781 115.773438 143.078125 127.09375 154.402344 C 138.417969 165.722656 156.945312 165.617188 168.398438 154.164062 L 170.871094 156.640625 C 158.039062 169.472656 137.277344 169.589844 124.59375 156.902344 C 111.90625 144.21875 112.023438 123.457031 124.855469 110.625 Z M 124.855469 110.625 " fill-opacity="1" fill-rule="nonzero"/></g></g></g><g mask="url(#9b0387eb8c)"><g transform="matrix(1, 0, 0, 1, 197, 105)"><g clip-path="url(#6b9faccc88)"><g clip-path="url(#c2346a4a5a)"><path fill="#fafbfe" d="M 55.875 28.636719 C 55.875 29.542969 55.832031 30.445312 55.742188 31.347656 C 55.652344 32.25 55.519531 33.144531 55.34375 34.035156 C 55.167969 34.925781 54.949219 35.800781 54.683594 36.667969 C 54.421875 37.539062 54.117188 38.390625 53.769531 39.226562 C 53.421875 40.0625 53.035156 40.882812 52.609375 41.683594 C 52.179688 42.480469 51.714844 43.257812 51.210938 44.011719 C 50.707031 44.765625 50.167969 45.492188 49.59375 46.191406 C 49.019531 46.894531 48.410156 47.566406 47.769531 48.207031 C 47.128906 48.847656 46.457031 49.453125 45.757812 50.03125 C 45.054688 50.605469 44.328125 51.144531 43.574219 51.648438 C 42.820312 52.152344 42.046875 52.617188 41.246094 53.042969 C 40.445312 53.472656 39.628906 53.859375 38.789062 54.207031 C 37.953125 54.550781 37.101562 54.855469 36.234375 55.121094 C 35.367188 55.382812 34.488281 55.601562 33.597656 55.78125 C 32.710938 55.957031 31.816406 56.089844 30.914062 56.179688 C 30.011719 56.265625 29.105469 56.3125 28.199219 56.3125 C 27.292969 56.3125 26.390625 56.265625 25.488281 56.179688 C 24.585938 56.089844 23.6875 55.957031 22.800781 55.78125 C 21.910156 55.601562 21.03125 55.382812 20.164062 55.121094 C 19.296875 54.855469 18.445312 54.550781 17.609375 54.207031 C 16.769531 53.859375 15.953125 53.472656 15.152344 53.042969 C 14.355469 52.617188 13.578125 52.152344 12.824219 51.648438 C 12.070312 51.144531 11.34375 50.605469 10.640625 50.03125 C 9.941406 49.453125 9.269531 48.847656 8.628906 48.207031 C 7.988281 47.566406 7.378906 46.894531 6.804688 46.191406 C 6.230469 45.492188 5.691406 44.765625 5.1875 44.011719 C 4.683594 43.257812 4.21875 42.480469 3.792969 41.683594 C 3.363281 40.882812 2.976562 40.0625 2.628906 39.226562 C 2.285156 38.390625 1.976562 37.539062 1.714844 36.667969 C 1.453125 35.800781 1.230469 34.925781 1.054688 34.035156 C 0.878906 33.144531 0.746094 32.25 0.65625 31.347656 C 0.566406 30.445312 0.523438 29.542969 0.523438 28.636719 C 0.523438 27.730469 0.566406 26.824219 0.65625 25.921875 C 0.746094 25.019531 0.878906 24.125 1.054688 23.238281 C 1.230469 22.347656 1.453125 21.46875 1.714844 20.601562 C 1.976562 19.734375 2.285156 18.882812 2.628906 18.042969 C 2.976562 17.207031 3.363281 16.390625 3.792969 15.589844 C 4.21875 14.789062 4.683594 14.011719 5.1875 13.257812 C 5.691406 12.507812 6.230469 11.777344 6.804688 11.078125 C 7.378906 10.378906 7.988281 9.707031 8.628906 9.066406 C 9.269531 8.425781 9.941406 7.816406 10.640625 7.242188 C 11.34375 6.667969 12.070312 6.128906 12.824219 5.625 C 13.578125 5.121094 14.355469 4.65625 15.152344 4.226562 C 15.953125 3.800781 16.769531 3.414062 17.609375 3.066406 C 18.445312 2.71875 19.296875 2.414062 20.164062 2.152344 C 21.03125 1.886719 21.910156 1.667969 22.800781 1.492188 C 23.6875 1.316406 24.585938 1.183594 25.488281 1.09375 C 26.390625 1.003906 27.292969 0.960938 28.199219 0.960938 C 29.105469 0.960938 30.011719 1.003906 30.914062 1.09375 C 31.816406 1.183594 32.710938 1.316406 33.597656 1.492188 C 34.488281 1.667969 35.367188 1.886719 36.234375 2.152344 C 37.101562 2.414062 37.953125 2.71875 38.789062 3.066406 C 39.628906 3.414062 40.445312 3.800781 41.246094 4.226562 C 42.046875 4.65625 42.820312 5.121094 43.574219 5.625 C 44.328125 6.128906 45.054688 6.667969 45.757812 7.242188 C 46.457031 7.816406 47.128906 8.425781 47.769531 9.066406 C 48.410156 9.707031 49.019531 10.378906 49.59375 11.078125 C 50.167969 11.777344 50.707031 12.507812 51.210938 13.257812 C 51.714844 14.011719 52.179688 14.789062 52.609375 15.589844 C 53.035156 16.390625 53.421875 17.207031 53.769531 18.042969 C 54.117188 18.882812 54.421875 19.734375 54.683594 20.601562 C 54.949219 21.46875 55.167969 22.347656 55.34375 23.238281 C 55.519531 24.125 55.652344 25.019531 55.742188 25.921875 C 55.832031 26.824219 55.875 27.730469 55.875 28.636719 Z M 55.875 28.636719 " fill-opacity="1" fill-rule="nonzero"/></g></g></g></g><g fill="#4682b4" fill-opacity="1"><g transform="translate(206.374469, 153.41165)"><g><path d="M 35.1875 -8.515625 L 35.1875 0 L 3.890625 0 L 3.890625 -38.96875 L 34.453125 -38.96875 L 34.453125 -30.453125 L 14.8125 -30.453125 L 14.8125 -23.890625 L 32.125 -23.890625 L 32.125 -15.640625 L 14.8125 -15.640625 L 14.8125 -8.515625 Z M 35.1875 -8.515625 "/></g></g></g><g clip-path="url(#aa31d88021)"><g clip-path="url(#77a4b1f65e)"><g clip-path="url(#07cf9bf3e8)"><path fill="#4682b4" d="M 210.722656 165.292969 L 212.34375 162.011719 C 227.195312 169.351562 245.3125 163.105469 252.730469 148.09375 C 260.148438 133.078125 254.101562 114.894531 239.25 107.558594 L 240.871094 104.277344 C 257.511719 112.5 264.285156 132.875 255.972656 149.695312 C 247.664062 166.515625 227.363281 173.515625 210.722656 165.292969 Z M 210.722656 165.292969 " fill-opacity="1" fill-rule="nonzero"/></g></g></g><g fill="#4682b4" fill-opacity="1"><g transform="translate(128.542106, 75.090413)"><g><path d="M 17.59375 0.78125 C 14.4375 0.78125 11.375 0.390625 8.40625 -0.390625 C 5.4375 -1.171875 3.023438 -2.207031 1.171875 -3.5 L 4.78125 -11.640625 C 6.53125 -10.484375 8.554688 -9.550781 10.859375 -8.84375 C 13.160156 -8.144531 15.421875 -7.796875 17.640625 -7.796875 C 21.878906 -7.796875 24 -8.851562 24 -10.96875 C 24 -12.082031 23.394531 -12.90625 22.1875 -13.4375 C 20.976562 -13.976562 19.039062 -14.546875 16.375 -15.140625 C 13.4375 -15.773438 10.984375 -16.453125 9.015625 -17.171875 C 7.046875 -17.898438 5.359375 -19.0625 3.953125 -20.65625 C 2.546875 -22.25 1.84375 -24.398438 1.84375 -27.109375 C 1.84375 -29.484375 2.488281 -31.625 3.78125 -33.53125 C 5.082031 -35.445312 7.019531 -36.960938 9.59375 -38.078125 C 12.175781 -39.191406 15.34375 -39.75 19.09375 -39.75 C 21.65625 -39.75 24.175781 -39.460938 26.65625 -38.890625 C 29.144531 -38.316406 31.335938 -37.472656 33.234375 -36.359375 L 29.84375 -28.171875 C 26.125 -30.171875 22.523438 -31.171875 19.046875 -31.171875 C 16.847656 -31.171875 15.25 -30.847656 14.25 -30.203125 C 13.25 -29.554688 12.75 -28.710938 12.75 -27.671875 C 12.75 -26.628906 13.34375 -25.847656 14.53125 -25.328125 C 15.71875 -24.804688 17.628906 -24.269531 20.265625 -23.71875 C 23.234375 -23.082031 25.691406 -22.398438 27.640625 -21.671875 C 29.585938 -20.953125 31.273438 -19.800781 32.703125 -18.21875 C 34.128906 -16.644531 34.84375 -14.503906 34.84375 -11.796875 C 34.84375 -9.460938 34.191406 -7.347656 32.890625 -5.453125 C 31.597656 -3.554688 29.648438 -2.039062 27.046875 -0.90625 C 24.453125 0.21875 21.300781 0.78125 17.59375 0.78125 Z M 17.59375 0.78125 "/></g></g></g><g fill="#ffd700" fill-opacity="1"><g transform="translate(205.303356, 75.090413)"><g><path d="M 30 -20.3125 L 39.75 -20.3125 L 39.75 -4.171875 C 37.519531 -2.578125 34.957031 -1.351562 32.0625 -0.5 C 29.164062 0.351562 26.269531 0.78125 23.375 0.78125 C 19.300781 0.78125 15.628906 -0.078125 12.359375 -1.796875 C 9.085938 -3.523438 6.523438 -5.929688 4.671875 -9.015625 C 2.816406 -12.097656 1.890625 -15.585938 1.890625 -19.484375 C 1.890625 -23.378906 2.816406 -26.867188 4.671875 -29.953125 C 6.523438 -33.035156 9.101562 -35.4375 12.40625 -37.15625 C 15.71875 -38.882812 19.453125 -39.75 23.609375 -39.75 C 27.242188 -39.75 30.507812 -39.132812 33.40625 -37.90625 C 36.300781 -36.6875 38.710938 -34.925781 40.640625 -32.625 L 33.625 -26.28125 C 30.988281 -29.175781 27.832031 -30.625 24.15625 -30.625 C 20.820312 -30.625 18.132812 -29.609375 16.09375 -27.578125 C 14.050781 -25.554688 13.03125 -22.859375 13.03125 -19.484375 C 13.03125 -17.328125 13.492188 -15.40625 14.421875 -13.71875 C 15.347656 -12.03125 16.644531 -10.710938 18.3125 -9.765625 C 19.988281 -8.816406 21.898438 -8.34375 24.046875 -8.34375 C 26.160156 -8.34375 28.144531 -8.769531 30 -9.625 Z M 30 -20.3125 "/></g></g></g><g fill="#ffd700" fill-opacity="1"><g transform="translate(124.761971, 148.861988)"><g><path d="M 32.078125 0 L 32 -16.953125 L 23.765625 -3.15625 L 19.75 -3.15625 L 11.5625 -16.5 L 11.5625 0 L 3.203125 0 L 3.203125 -32 L 10.65625 -32 L 21.890625 -13.53125 L 32.859375 -32 L 40.3125 -32 L 40.40625 0 Z M 32.078125 0 "/></g></g></g></svg>